<?xml version="1.0" encoding="UTF-8"?>
<svg version="1.1" xmlns="http://www.w3.org/2000/svg" width="1080" height="1080">
<path d="M0 0 C2.03187729 -0.00258614 4.06375408 -0.0056 6.09563017 -0.0090034 C11.66662229 -0.01704784 17.23760151 -0.01886155 22.80859876 -0.01960087 C28.82261323 -0.02145597 34.83662109 -0.02900577 40.85063171 -0.03573608 C54.68342247 -0.05001071 68.51621141 -0.05584452 82.34900773 -0.06042803 C89.19454629 -0.06276797 96.04008402 -0.06637114 102.88562194 -0.07012341 C126.34856437 -0.08295838 149.81150634 -0.0936758 173.27445221 -0.09712601 C174.74624589 -0.09734763 176.21803957 -0.09756942 177.68983325 -0.09779136 C179.16506185 -0.09801199 180.64029045 -0.09823248 182.11551905 -0.09845281 C185.07477474 -0.09889534 188.03403044 -0.09934246 190.99328613 -0.09979248 C191.72700467 -0.09990187 192.4607232 -0.10001126 193.21667563 -0.10012397 C216.97652064 -0.10374991 240.73633504 -0.11965274 264.49616834 -0.14298284 C289.65390975 -0.16764008 314.81163369 -0.18130165 339.96938753 -0.18249393 C342.73718548 -0.18266536 345.50498343 -0.18288078 348.27278137 -0.18312836 C348.95422286 -0.18318413 349.63566434 -0.18323989 350.33775557 -0.18329735 C361.2539052 -0.18444292 372.17002317 -0.19542289 383.08616215 -0.21001541 C394.08359736 -0.224461 405.08099774 -0.22732216 416.07844067 -0.21957543 C422.023903 -0.21569151 427.96925999 -0.21648689 433.91470909 -0.23063278 C505.57219943 -0.39108171 573.65104767 14.04312085 633.18029785 56.14044189 C633.9402002 56.67717529 634.70010254 57.21390869 635.48303223 57.76690674 C645.66483535 65.00661856 655.14458518 72.51738382 664.18029785 81.14044189 C665.46484422 82.25288399 666.75591577 83.35786517 668.05529785 84.45294189 C677.12670173 92.35017658 685.60169519 101.01391587 693.0513916 110.45294189 C695.2966567 113.2873316 697.63938224 116.02041195 699.99279785 118.76544189 C709.94404236 130.71002576 718.5165243 143.63136689 726.18029785 157.14044189 C726.66611328 157.98397217 727.15192871 158.82750244 727.65246582 159.69659424 C748.90326964 196.77594383 762.12671901 237.70491832 767.18029785 280.14044189 C767.26827595 280.84549653 767.35625406 281.55055117 767.44689816 282.2769711 C768.49244799 291.93291352 768.32888178 301.61369041 768.32746887 311.3125 C768.33077222 313.37055062 768.33449878 315.42860059 768.33861035 317.48664975 C768.34858538 323.1255389 768.35233989 328.7644174 768.35499966 334.40331411 C768.35891626 340.49239137 768.36849379 346.58146031 768.37721252 352.67053223 C768.39600904 366.67532412 768.40622874 380.68011518 768.4146732 394.68491604 C768.41888878 401.61804759 768.42410965 408.55117829 768.42935773 415.48430912 C768.44724715 439.25477967 768.46223781 463.0252505 768.46967793 486.79572678 C768.47015267 488.28669253 768.47062856 489.77765827 768.47110559 491.26862402 C768.47146015 492.3776173 768.47146015 492.3776173 768.47182188 493.50901449 C768.47302298 497.25432102 768.47423846 500.99962755 768.47546387 504.74493408 C768.47570402 505.48817983 768.47594417 506.23142559 768.47619159 506.99719394 C768.48407152 531.05492925 768.5074767 555.11261506 768.54001981 579.17032879 C768.57442616 604.65239722 768.5940392 630.13443673 768.59732217 655.61652875 C768.59773964 658.42175374 768.59821919 661.22697871 768.59874535 664.03220367 C768.59886854 664.7228436 768.59899173 665.41348352 768.59911865 666.12505193 C768.60143768 677.17499706 768.6170248 688.22488411 768.63758719 699.27480863 C768.65798519 710.41447721 768.66292752 721.55409192 768.65381656 732.69377956 C768.64930458 738.71280914 768.65097485 744.73165267 768.670578 750.75065613 C768.92399481 833.20025331 748.20024389 914.84782762 690.37561035 976.76934814 C688.50687519 978.78771513 686.70424204 980.84036645 684.90686035 982.92169189 C675.58299605 993.6072035 665.35995853 1003.42436055 654.18029785 1012.14044189 C653.08789819 1013.04230281 651.99821001 1013.94745474 650.9107666 1014.85528564 C636.39274895 1026.88811072 620.62471993 1037.26032666 604.00402832 1046.15216064 C602.25673018 1047.09902315 600.53225302 1048.087638 598.8092041 1049.07794189 C579.95363031 1059.69356573 559.14749446 1067.15938795 538.42051077 1073.19078755 C536.4317508 1073.77366114 534.44667414 1074.3695271 532.46846247 1074.9872539 C509.03878047 1082.16260351 484.84735002 1080.98782111 460.60862899 1080.89547181 C454.17488823 1080.87760675 447.74122028 1080.89472665 441.30747986 1080.90719604 C429.46135289 1080.92612005 417.6154249 1080.91593324 405.76931231 1080.89286841 C394.8185456 1080.87169534 383.86784784 1080.86273016 372.91706085 1080.86545944 C372.18726555 1080.8656275 371.45747025 1080.86579556 370.70555993 1080.86596872 C367.74214484 1080.86667336 364.77872976 1080.86744142 361.81531471 1080.86829987 C334.07973389 1080.87620981 306.34427462 1080.85089179 278.60872858 1080.80924675 C254.04026918 1080.77253011 229.47192627 1080.76088045 204.90344238 1080.77178955 C203.3261963 1080.77248243 201.74895022 1080.77317462 200.17170414 1080.77386613 C199.00198896 1080.77437912 199.00198896 1080.77437912 197.80864316 1080.77490247 C193.88204565 1080.77660992 189.95544812 1080.77825746 186.02885056 1080.77984047 C185.25396205 1080.78015463 184.47907355 1080.78046879 183.68070357 1080.78079247 C163.07227691 1080.7887984 142.46386125 1080.7777864 121.85544133 1080.76081789 C119.63403579 1080.75900405 117.41263026 1080.75719276 115.19122471 1080.75538742 C113.71798417 1080.7541852 112.24474364 1080.75296797 110.77150312 1080.75173561 C100.55914747 1080.74333871 90.34681386 1080.74211707 80.13445588 1080.7459466 C66.96152683 1080.75086247 53.7887229 1080.74202967 40.61582509 1080.71152659 C34.27671371 1080.69715889 27.93776328 1080.68877999 21.59863853 1080.69801331 C-31.75286552 1080.76609558 -83.27917385 1074.99913425 -131.81970215 1051.14044189 C-133.11623558 1050.52383775 -134.41311285 1049.90795609 -135.71032715 1049.29278564 C-153.37719033 1040.79850849 -170.10897906 1030.85793883 -185.81970215 1019.14044189 C-186.72438232 1018.47117676 -186.72438232 1018.47117676 -187.64733887 1017.78839111 C-194.13926133 1012.96936638 -200.36850558 1007.93284088 -206.3079834 1002.44122314 C-208.3830637 1000.54041086 -210.48732764 998.69428905 -212.61657715 996.85528564 C-223.29417139 987.53405131 -233.11142822 977.31683625 -241.81970215 966.14044189 C-242.74516145 965.01303355 -243.67374756 963.88818723 -244.6048584 962.76544189 C-260.78858402 943.14151859 -274.06091629 921.17049522 -284.81970215 898.14044189 C-285.20480957 897.32188721 -285.58991699 896.50333252 -285.98669434 895.65997314 C-297.24833603 871.47557528 -304.81811667 846.32189037 -309.81970215 820.14044189 C-309.99944759 819.24548846 -310.17919303 818.35053503 -310.36438531 817.42846179 C-312.22752874 807.03003423 -312.10176048 796.71777869 -312.08039856 786.19396973 C-312.08342265 784.07629377 -312.08731343 781.95861891 -312.09199113 779.84094596 C-312.1022473 774.0467534 -312.10009532 768.25262288 -312.09581053 762.45842528 C-312.09333885 756.19907834 -312.10236319 749.93974616 -312.10984802 743.68040466 C-312.1225867 731.42481545 -312.12439533 719.16925507 -312.12204776 706.91366169 C-312.12021173 696.94469448 -312.12198121 686.97573368 -312.1262722 677.00676727 C-312.12687462 675.57208889 -312.12747582 674.13741051 -312.1280758 672.70273213 C-312.12898312 670.54046774 -312.12989179 668.37820334 -312.13080816 666.21593895 C-312.13923412 646.11897655 -312.14357609 626.02201656 -312.13940144 605.92505264 C-312.13924506 605.16796828 -312.13908868 604.41088391 -312.13892757 603.6308576 C-312.13812185 599.79411452 -312.13727608 595.95737145 -312.13641427 592.12062839 C-312.13624318 591.35871481 -312.13607209 590.59680123 -312.13589582 589.81179937 C-312.13554916 588.2710233 -312.13520063 586.73024723 -312.13485023 585.18947117 C-312.12949883 561.24098459 -312.13740836 537.29253488 -312.15588379 513.34405518 C-312.1766451 486.40133592 -312.18731824 459.45863951 -312.1833083 432.51591182 C-312.182913 429.63724312 -312.18255145 426.75857441 -312.18221092 423.8799057 C-312.18212019 423.17117328 -312.18202946 422.46244087 -312.18193598 421.73223171 C-312.18077444 411.07555987 -312.18738465 400.41891123 -312.19802284 389.76224518 C-312.21012836 377.62376324 -312.21129738 365.48534798 -312.19923268 353.34686229 C-312.19337065 347.16252585 -312.19216972 340.97828833 -312.20423508 334.79395866 C-312.29132656 286.93115898 -312.29132656 286.93115898 -308.81970215 267.14044189 C-308.59697177 265.78857423 -308.37474658 264.43662319 -308.15315723 263.08456802 C-307.6478143 260.12681082 -307.07165366 257.19953337 -306.44470215 254.26544189 C-306.22975098 253.23483643 -306.0147998 252.20423096 -305.79333496 251.14239502 C-305.15516925 248.13696061 -304.49460199 245.13782151 -303.81970215 242.14044189 C-303.63182129 241.30351807 -303.44394043 240.46659424 -303.25036621 239.60430908 C-295.50278842 205.97623081 -281.05814119 172.76686922 -261.81970215 144.14044189 C-261.22157715 143.20844971 -260.62345215 142.27645752 -260.00720215 141.31622314 C-255.12646567 133.78847434 -249.75885624 126.75369519 -244.13513184 119.77618408 C-242.95063923 118.30326269 -241.77888843 116.82011637 -240.60876465 115.33575439 C-229.6093044 101.55576145 -217.22132932 88.59482409 -203.81970215 77.14044189 C-202.93153809 76.35153564 -202.04337402 75.56262939 -201.1282959 74.74981689 C-154.53542754 33.76187535 -93.58936626 8.59993096 -32.23643732 1.42564464 C-30.78201441 1.25400589 -29.32859331 1.07296173 -27.87770987 0.87360501 C-18.62823 -0.25980485 -9.30150771 -0.00473793 0 0 Z " fill="#171A1E" transform="translate(311.8197021484375,-0.14044189453125)"/>
<path d="M0 0 C0.99729126 -0.00045319 1.99458252 -0.00090637 3.02209473 -0.00137329 C21.39349158 0.02317556 38.74492402 1.19309893 56.1875 7.375 C56.83525391 7.59696045 57.48300781 7.8189209 58.15039062 8.04760742 C73.76820482 13.43591483 87.04452628 20.49737961 99.71582031 31.14111328 C100.97079856 32.19331303 102.24522653 33.22224249 103.5234375 34.24609375 C109.22243859 38.94270136 113.65045995 44.57903352 118.1875 50.375 C119.15236328 51.57576172 119.15236328 51.57576172 120.13671875 52.80078125 C126.34785497 60.60175278 131.02723046 68.66283893 135.125 77.75 C135.77686279 79.19475708 135.77686279 79.19475708 136.44189453 80.66870117 C139.06822739 86.59432193 141.49464252 92.54391543 143.5625 98.6875 C143.77640381 99.31769043 143.99030762 99.94788086 144.21069336 100.59716797 C148.29703261 113.36518307 150.87961543 126.39503963 151.9375 139.75 C151.99754211 140.47546021 152.05758423 141.20092041 152.1194458 141.94836426 C156.48520107 196.64862442 160.94027063 269.23649675 123.55078125 314.7578125 C121.48836527 317.03610133 119.35934957 319.20315043 117.1875 321.375 C116.5275 322.365 115.8675 323.355 115.1875 324.375 C114.5275 324.375 113.8675 324.375 113.1875 324.375 C112.94128906 324.95507812 112.69507813 325.53515625 112.44140625 326.1328125 C108.74069031 332.75029209 101.20178143 337.25536886 94.83984375 341.05078125 C94.29457031 341.48777344 93.74929688 341.92476562 93.1875 342.375 C93.1875 343.365 93.1875 344.355 93.1875 345.375 C94.97487977 346.92139839 94.97487977 346.92139839 97.375 348.375 C113.14255742 358.99805775 125.85420331 371.72485961 135.1875 388.375 C135.85523438 389.50292969 136.52296875 390.63085938 137.2109375 391.79296875 C146.45281984 407.74919018 150.55887904 424.71926478 153.5625 442.75 C153.69005676 443.51114105 153.81761353 444.2722821 153.94903564 445.05648804 C156.75003065 462.0292003 157.34873924 478.77185067 157.35546875 495.9375 C157.35869406 497.90120466 157.36205901 499.86490909 157.36555481 501.82861328 C157.37150407 505.9266007 157.37339916 510.02456717 157.37280273 514.12255859 C157.37272163 518.27657438 157.37964583 522.43047954 157.39331055 526.58447266 C157.53906601 571.61428255 157.53906601 571.61428255 155.1875 589.375 C155.0571788 590.41355133 155.0571788 590.41355133 154.92422485 591.4730835 C152.85702935 607.69495896 149.59687813 623.30267475 143.1875 638.375 C142.67678955 639.57624512 142.67678955 639.57624512 142.15576172 640.80175781 C134.63592236 658.12873535 125.54131196 672.98341205 112.1875 686.375 C110.90166016 687.67244141 110.90166016 687.67244141 109.58984375 688.99609375 C94.81853041 703.62329672 77.52460919 712.29663917 57.97753906 718.77001953 C56.55456038 719.2509444 55.14544469 719.7728454 53.7421875 720.30859375 C48.74310665 722.20040278 43.62654304 723.10495535 38.375 724 C37.29037476 724.18502075 37.29037476 724.18502075 36.18383789 724.3737793 C24.65343698 726.21992105 13.09607777 726.61050117 1.4375 726.625 C0.72149628 726.62667175 0.00549255 726.62834351 -0.73220825 726.63006592 C-13.9136389 726.63189629 -26.80856588 725.62446577 -39.8125 723.375 C-40.66859863 723.22901367 -41.52469727 723.08302734 -42.40673828 722.93261719 C-47.82258483 721.93704958 -52.71331691 720.42204999 -57.8125 718.375 C-59.63587891 717.73691406 -59.63587891 717.73691406 -61.49609375 717.0859375 C-78.8195459 710.92087961 -93.06433297 702.6196492 -106.8125 690.375 C-107.67488281 689.61445312 -108.53726563 688.85390625 -109.42578125 688.0703125 C-116.22918281 681.66568936 -121.53201492 674.03755264 -126.8125 666.375 C-127.53695313 665.33472656 -128.26140625 664.29445313 -129.0078125 663.22265625 C-155.47810515 622.89438686 -155.17796414 571.10746544 -155.07324219 524.79760742 C-155.06182544 519.70145869 -155.06863967 514.60551823 -155.08011341 509.50937653 C-155.17667136 459.19577307 -155.17667136 459.19577307 -150.625 437.75 C-150.41286865 436.72422852 -150.2007373 435.69845703 -149.98217773 434.64160156 C-146.72815829 419.61306289 -141.81232061 405.07719842 -134.8125 391.375 C-134.45027344 390.61832031 -134.08804687 389.86164063 -133.71484375 389.08203125 C-129.84135609 381.46000714 -124.19368064 374.96643346 -118.8125 368.375 C-118.38606201 367.83907227 -117.95962402 367.30314453 -117.52026367 366.75097656 C-114.96730478 363.58738754 -112.35302626 360.96623398 -109.125 358.5 C-108.35800781 357.90445312 -107.59101563 357.30890625 -106.80078125 356.6953125 C-104.8125 355.375 -104.8125 355.375 -102.8125 355.375 C-102.8125 354.715 -102.8125 354.055 -102.8125 353.375 C-99.7974508 351.23308722 -96.67001061 349.30923179 -93.53515625 347.34765625 C-90.56290553 345.59737814 -90.56290553 345.59737814 -89.8125 342.375 C-90.5034375 342.14425781 -91.194375 341.91351562 -91.90625 341.67578125 C-95.43309461 340.09723386 -98.29835011 337.93675496 -101.3125 335.5625 C-102.14587891 334.92344727 -102.14587891 334.92344727 -102.99609375 334.27148438 C-106.52686061 331.52579391 -109.70543669 328.60390893 -112.8125 325.375 C-113.59109375 324.58222656 -114.3696875 323.78945313 -115.171875 322.97265625 C-121.77747352 315.96769965 -126.87999073 308.61209553 -131.8125 300.375 C-132.60527344 299.06595703 -132.60527344 299.06595703 -133.4140625 297.73046875 C-135.9607991 293.35931558 -137.57774622 289.31401511 -138.8125 284.375 C-139.26755825 282.97940875 -139.73462777 281.58770065 -140.2109375 280.19921875 C-145.2522051 265.18507495 -148.10586617 250.10483401 -149.8125 234.375 C-149.89542297 233.71831329 -149.97834595 233.06162659 -150.06378174 232.38504028 C-150.98510969 224.45726018 -150.99512687 216.53201845 -151.015625 208.5625 C-151.01845238 207.80977814 -151.02127975 207.05705627 -151.02419281 206.28152466 C-151.03911711 202.2833828 -151.04838435 198.28527628 -151.05273438 194.28710938 C-151.05708414 191.04089909 -151.07084815 187.79495982 -151.09375 184.54882812 C-151.26759902 159.36057715 -150.45331038 134.76414939 -144.3125 110.1875 C-144.01730469 108.93259766 -143.72210938 107.67769531 -143.41796875 106.38476562 C-141.9818631 100.42840674 -140.42169409 94.91506965 -137.8125 89.375 C-137.03366109 87.29464624 -136.26271249 85.21132008 -135.5 83.125 C-127.37392079 61.9633354 -110.94303023 37.14361768 -90.8125 25.375 C-90.1525 25.375 -89.4925 25.375 -88.8125 25.375 C-88.8125 24.715 -88.8125 24.055 -88.8125 23.375 C-82.39015834 18.68508191 -75.06141479 15.4647179 -67.75 12.4375 C-67.01209229 12.13110596 -66.27418457 11.82471191 -65.51391602 11.5090332 C-62.47534049 10.28749001 -60.11760861 9.375 -56.8125 9.375 C-56.8125 8.715 -56.8125 8.055 -56.8125 7.375 C-53.41851236 6.57528566 -50.02199959 5.78681318 -46.625 5 C-45.21444336 4.66742188 -45.21444336 4.66742188 -43.77539062 4.328125 C-40.7942991 3.64095814 -37.80806052 2.99602791 -34.8125 2.375 C-33.39070435 2.07940186 -33.39070435 2.07940186 -31.94018555 1.77783203 C-21.3598384 -0.13710843 -10.71548245 -0.01884743 0 0 Z " fill="#AAB1BE" transform="translate(473.8125,188.625)"/>
<path d="M0 0 C0.90505783 -0.00979385 1.81011566 -0.01958771 2.74259949 -0.02967834 C45.27521463 -0.3953795 79.9573288 6.37048198 112.5 35.23828125 C113.24507812 35.89699219 113.99015625 36.55570313 114.7578125 37.234375 C138.01776779 59.12886733 149.18288228 91.98882242 154.8125 122.55078125 C154.95961426 123.34750244 155.10672852 124.14422363 155.25830078 124.96508789 C155.72743683 127.71707838 156.12141271 130.47231603 156.5 133.23828125 C156.67732666 134.46458252 156.85465332 135.69088379 157.03735352 136.9543457 C158.97538946 151.67374152 158.84045732 166.47909199 158.81567383 181.29614258 C158.81105665 184.28685605 158.81792444 187.27716146 158.83618164 190.26782227 C159.10216621 234.3006447 155.86628065 284.04372963 123.5 317.23828125 C122.675 318.10453125 121.85 318.97078125 121 319.86328125 C120.175 320.64703125 119.35 321.43078125 118.5 322.23828125 C117.92636719 322.81835938 117.35273437 323.3984375 116.76171875 323.99609375 C109.45525955 331.01359693 100.12403953 336.81182827 90.578125 340.30859375 C89.89234375 340.61539062 89.2065625 340.9221875 88.5 341.23828125 C88.17 342.22828125 87.84 343.21828125 87.5 344.23828125 C88.675625 344.57859375 88.675625 344.57859375 89.875 344.92578125 C99.14407571 348.2818259 106.67972355 353.30849205 114.5 359.23828125 C115.60214844 360.01365234 115.60214844 360.01365234 116.7265625 360.8046875 C121.77767377 364.38337058 125.59046797 368.46091903 129.5 373.23828125 C130.13808594 373.955 130.77617188 374.67171875 131.43359375 375.41015625 C158.41535909 406.75739239 160.67286666 452.91638982 160.6328125 492.0234375 C160.63348824 494.37837229 160.63446051 496.73330702 160.63571167 499.08824158 C160.63717564 503.99381177 160.63507611 508.8993636 160.63037109 513.80493164 C160.62467146 520.04674013 160.62796266 526.28850562 160.63394356 532.53031254 C160.63758181 537.3837465 160.63639574 542.2371705 160.63381577 547.09060478 C160.63315567 549.39036502 160.63394227 551.6901262 160.63629532 553.98988533 C160.66391763 588.5566285 160.66391763 588.5566285 157.4375 604.80078125 C157.22125977 605.89793457 157.00501953 606.99508789 156.78222656 608.12548828 C151.72376323 632.45844121 142.96900864 656.60651613 127.5 676.23828125 C126.84773438 677.099375 126.19546875 677.96046875 125.5234375 678.84765625 C123.88015302 681.00491958 122.19709478 683.12330887 120.5 685.23828125 C119.85417969 686.10453125 119.85417969 686.10453125 119.1953125 686.98828125 C114.33942318 693.194625 107.84824848 697.67595568 101.5 702.23828125 C100.6234375 702.86992188 99.746875 703.5015625 98.84375 704.15234375 C93.25883386 707.92733336 87.37457305 710.83621225 81.25 713.61328125 C80.49307861 713.95955566 79.73615723 714.30583008 78.95629883 714.66259766 C74.42488906 716.64922824 70.43065883 717.78173877 65.5 718.23828125 C65.5 718.89828125 65.5 719.55828125 65.5 720.23828125 C35.02051687 726.7923246 3.3142232 729.57391593 -27.5 723.23828125 C-29.27310547 722.87863281 -29.27310547 722.87863281 -31.08203125 722.51171875 C-37.50870522 721.04045502 -43.46579263 718.86531084 -49.5 716.23828125 C-50.92440405 715.6417477 -52.34889061 715.04541112 -53.7734375 714.44921875 C-62.34906162 710.80865743 -70.17050632 707.08381054 -77.5 701.23828125 C-78.3146875 700.62339844 -79.129375 700.00851562 -79.96875 699.375 C-100.41830302 683.62758186 -113.54369839 662.74922174 -123.5 639.23828125 C-124.22703125 637.52511719 -124.22703125 637.52511719 -124.96875 635.77734375 C-127.09675736 629.98697475 -128.28074677 623.93222933 -129.55224609 617.90893555 C-129.98711441 615.86145032 -130.44004411 613.81859593 -130.89453125 611.77539062 C-131.8713274 607.28131159 -132.7161109 602.76978235 -133.5 598.23828125 C-133.64579498 597.39748016 -133.79158997 596.55667908 -133.94180298 595.69039917 C-137.43549502 574.46238285 -136.83577347 553.11420076 -136.6875 531.67578125 C-136.625625 518.99140625 -136.56375 506.30703125 -136.5 493.23828125 C-105.48 493.23828125 -74.46 493.23828125 -42.5 493.23828125 C-42.125 528.73828125 -42.125 528.73828125 -42.02197266 539.84570312 C-41.98195437 543.20246852 -41.98195437 543.20246852 -41.93954468 546.5592041 C-41.92214278 548.02596532 -41.90821831 549.49277086 -41.89730835 550.95959473 C-41.72380328 573.30608893 -39.87691596 595.63075366 -24.3125 613.05078125 C-14.30796186 622.29942095 -1.69172533 624.55683391 11.5222168 624.21264648 C25.1394309 623.54946518 35.87326485 620.1274749 45.4296875 610.2421875 C57.87327187 595.68906844 59.6552911 574.01727614 59.64526367 555.57617188 C59.64862228 554.6672821 59.6519809 553.75839233 59.65544128 552.82196045 C59.66486302 549.84613642 59.66689029 546.87036923 59.66796875 543.89453125 C59.67118861 541.79960101 59.67455321 539.704671 59.67805481 537.60974121 C59.68402506 533.22549927 59.685897 528.84127697 59.68530273 524.45703125 C59.68520151 518.88765504 59.69882218 513.31840745 59.71607494 507.74906158 C59.72729414 503.42142174 59.72921889 499.09381195 59.72869301 494.76615906 C59.72985946 492.71562764 59.73420444 490.66509508 59.74202538 488.61457825 C59.7959989 472.9959669 59.76764072 456.89863404 55.25 441.80078125 C55.03311523 441.05763672 54.81623047 440.31449219 54.59277344 439.54882812 C50.08867556 424.82561771 41.01461322 412.87078119 27.5 405.23828125 C7.58076296 395.89381564 -16.64187886 398.73490318 -37.5 398.23828125 C-37.5 364.90828125 -37.5 331.57828125 -37.5 297.23828125 C-15.72 296.74328125 -15.72 296.74328125 6.5 296.23828125 C17.60561759 294.98761913 17.60561759 294.98761913 27.25 291.61328125 C32.38439306 289.23828125 32.38439306 289.23828125 34.5 289.23828125 C34.5 288.57828125 34.5 287.91828125 34.5 287.23828125 C35.66629452 286.1696713 36.88505932 285.15798145 38.125 284.17578125 C51.31215831 272.8725027 55.86852947 254.93552049 57.5 238.23828125 C57.63554215 235.47963078 57.65685823 232.72651232 57.66113281 229.96484375 C57.66609772 229.17982986 57.67106262 228.39481598 57.67617798 227.58601379 C57.69067391 225.01176036 57.69758228 222.43756864 57.703125 219.86328125 C57.70595238 218.97488556 57.70877975 218.08648987 57.71169281 217.1711731 C57.72663826 212.46486113 57.73589567 207.75857942 57.74023438 203.05224609 C57.74569639 198.23585724 57.76968971 193.4197543 57.79820633 188.60345459 C57.81700502 184.86093385 57.82204749 181.11847945 57.82357025 177.37591553 C57.8265612 175.60282843 57.83446621 173.82974147 57.84775543 172.05670166 C57.98519543 152.30166245 56.06952109 130.5236065 41.78515625 115.42578125 C40.35792205 114.02877083 38.92911395 112.63336867 37.5 111.23828125 C37.5 110.57828125 37.5 109.91828125 37.5 109.23828125 C36.77941406 108.95082031 36.05882812 108.66335938 35.31640625 108.3671875 C33.5303584 107.65128205 31.74624779 106.93050878 29.96484375 106.203125 C29.13082031 105.86410156 28.29679688 105.52507812 27.4375 105.17578125 C26.18259766 104.66337891 26.18259766 104.66337891 24.90234375 104.140625 C13.90177196 100.00870291 -0.88203012 100.93877563 -11.734375 104.91796875 C-22.94150447 110.26826502 -28.39063523 118.82824556 -32.75 130.05078125 C-32.99645264 130.67782959 -33.24290527 131.30487793 -33.49682617 131.95092773 C-37.42899609 142.70628915 -37.81490083 153.85321868 -37.9140625 165.19140625 C-37.93170654 166.41778809 -37.94935059 167.64416992 -37.9675293 168.90771484 C-38.03000364 173.43444353 -38.07659744 177.96138023 -38.125 182.48828125 C-38.24875 192.63578125 -38.3725 202.78328125 -38.5 213.23828125 C-69.85 213.23828125 -101.2 213.23828125 -133.5 213.23828125 C-133.79014295 160.43226456 -132.63395553 112.92641548 -110.5 64.23828125 C-109.84 64.23828125 -109.18 64.23828125 -108.5 64.23828125 C-108.38269531 63.65820312 -108.26539063 63.078125 -108.14453125 62.48046875 C-105.39025992 52.89894302 -95.99730454 44.53420299 -89.5 37.23828125 C-88.90445313 36.55636719 -88.30890625 35.87445313 -87.6953125 35.171875 C-77.73806704 24.46654633 -64.69141789 17.15065098 -51.5 11.23828125 C-50.89220703 10.9561377 -50.28441406 10.67399414 -49.65820312 10.38330078 C-38.97370985 5.4615893 -28.05887076 3.10067481 -16.5 1.23828125 C-15.44748047 1.06248535 -14.39496094 0.88668945 -13.31054688 0.70556641 C-8.85368062 0.15902348 -4.48571355 0.03983478 0 0 Z " fill="#AAB1BE" transform="translate(800.5,188.76171875)"/>
<path d="M0 0 C22.44 0 44.88 0 68 0 C68 233.31 68 466.62 68 707 C35 707 2 707 -32 707 C-32 529.13 -32 351.26 -32 168 C-66.32 168 -100.64 168 -136 168 C-136 141.93 -136 115.86 -136 89 C-123.46 88.34 -110.92 87.68 -98 87 C-88.24192724 85.76683696 -79.99969152 84.55493296 -71 81 C-69.69159331 80.51936412 -68.38169475 80.04276939 -67.0703125 79.5703125 C-42.01541178 70.44122459 -25.03021204 56.67301003 -12.5625 32.5 C-11.39509875 29.88502121 -10.61966636 27.74337729 -10 25 C-9.34 25 -8.68 25 -8 25 C-7.8453125 23.50726563 -7.8453125 23.50726563 -7.6875 21.984375 C-7.08690136 17.78441411 -5.65125243 14.13667435 -4 10.25 C-1.87726115 5.17219333 -1.87726115 5.17219333 0 0 Z " fill="#AAB1BE" transform="translate(217,194)"/>
<path d="M0 0 C0.68835938 0.54785156 1.37671875 1.09570312 2.0859375 1.66015625 C6.89795716 5.58669274 10.10925196 9.52331068 13 15 C13.42023438 15.70769531 13.84046875 16.41539062 14.2734375 17.14453125 C24.31889773 35.98737937 23.15905575 61.06477365 23.16796875 81.890625 C23.1711935 83.68837509 23.17455841 85.48612493 23.17805481 87.28387451 C23.18400121 91.03219205 23.18589935 94.78048668 23.18530273 98.52880859 C23.18520131 103.27974655 23.19885397 108.03053442 23.21607494 112.78143692 C23.22731271 116.48971197 23.22921838 120.19795205 23.22869301 123.90624237 C23.22985546 125.65533719 23.23417667 127.40443345 23.24202538 129.15351105 C23.3037071 144.31540171 22.63599058 159.5622668 18.8125 174.3125 C18.59891846 175.14297852 18.38533691 175.97345703 18.1652832 176.82910156 C14.05652668 191.85424595 6.19869006 202.41248275 -7.12890625 210.52734375 C-21.07233221 217.67927788 -38.42085493 217.54844768 -53.1484375 213.03515625 C-67.24130553 207.65523105 -74.78650913 198.76179308 -81.27734375 185.36328125 C-89.18844939 166.82442616 -89.31712343 146.44836687 -89.30078125 126.63671875 C-89.30468429 124.62766942 -89.30902215 122.61862089 -89.31376648 120.60957336 C-89.32116556 116.42694406 -89.32098378 112.24439926 -89.31567383 108.06176758 C-89.30988704 102.76411656 -89.32682255 97.46681606 -89.3500185 92.16922283 C-89.36491753 88.02761392 -89.36560586 83.88608631 -89.36250877 79.74445534 C-89.36301388 77.79408894 -89.36809457 75.84371696 -89.37832069 73.8933773 C-89.48912792 49.81391837 -88.11698575 21.66974415 -70.625 3.125 C-52.1533057 -13.70840656 -19.53009259 -17.327763 0 0 Z " fill="#171A1E" transform="translate(508,598)"/>
<path d="M0 0 C10.36982318 7.62486999 16.12945414 17.58198863 20.3125 29.5 C20.56644531 30.21671875 20.82039062 30.9334375 21.08203125 31.671875 C24.77328148 44.0999693 23.50297239 58.70237132 23.55078125 71.5546875 C23.55485678 72.49274357 23.5589323 73.43079964 23.56313133 74.39728165 C23.58383036 79.35648616 23.59820462 84.31566428 23.60766602 89.27490234 C23.6187391 94.34677977 23.65319667 99.4182197 23.69283772 104.48994255 C23.71917594 108.43833135 23.72737264 112.38661794 23.73094749 116.33508682 C23.73576344 118.20308537 23.74723111 120.07108094 23.76598549 121.93899155 C23.95713367 142.22491747 20.5649978 161.70127867 6.1875 177.0625 C-4.59208937 187.59387514 -18.19703552 189.48688052 -32.6875 189.5 C-43.78892304 189.08107838 -54.58839218 185.8441694 -63.0859375 178.3984375 C-64.6875 176.5 -64.6875 176.5 -64.6875 174.5 C-65.3475 174.5 -66.0075 174.5 -66.6875 174.5 C-80.06505282 156.70819172 -81.00818532 134.08494075 -80.98828125 112.73046875 C-80.99218326 110.95656741 -80.99652093 109.18266698 -81.00126648 107.4087677 C-81.00867045 103.71348017 -81.00848029 100.01828828 -81.00317383 96.32299805 C-80.99738843 91.6403778 -81.01431653 86.9581543 -81.0375185 82.27559948 C-81.05241181 78.61792296 -81.05310659 74.96033858 -81.05000877 71.3026371 C-81.05051424 69.57865934 -81.05560203 67.85467532 -81.06582069 66.13072777 C-81.18187523 43.82013423 -78.49594709 21.74620297 -62.88671875 4.51171875 C-47.13634202 -10.71690637 -18.13619843 -10.58727991 0 0 Z " fill="#171A1E" transform="translate(503.6875,296.5)"/>
</svg>
