<?xml version="1.0" encoding="UTF-8"?>
<svg version="1.1" xmlns="http://www.w3.org/2000/svg" width="1080" height="1080" viewBox="0 0 1080 1080">
<path d="M0 0 C6.93 0 13.86 0 21 0 C21 0.66 21 1.32 21 2 C22.02996094 1.97679688 23.05992187 1.95359375 24.12109375 1.9296875 C34.57352305 1.7713361 44.65254659 2.54954345 55 4 C55 4.99 55 5.98 55 7 C56.14726563 6.97035156 57.29453125 6.94070312 58.4765625 6.91015625 C62.90643897 6.91113242 67.04331342 7.56384839 71.375 8.4375 C72.44041016 8.63956055 72.44041016 8.63956055 73.52734375 8.84570312 C78.70579387 9.85289693 78.70579387 9.85289693 81 11 C81 11.66 81 12.32 81 13 C82.19625 13.12375 83.3925 13.2475 84.625 13.375 C88.27596813 13.82325054 91.54524899 14.70446837 95 16 C95 16.66 95 17.32 95 18 C95.845625 18.103125 96.69125 18.20625 97.5625 18.3125 C102.8033803 19.36067606 107.43172256 20.89648095 111 25 C111.99 25.66 112.98 26.32 114 27 C114 27.66 114 28.32 114 29 C114.7425 29.12375 115.485 29.2475 116.25 29.375 C118.82930049 29.96120466 120.7482162 30.63284555 123 32 C123.33 32.66 123.66 33.32 124 34 C125.88013106 35.12224855 125.88013106 35.12224855 128.0625 36.125 C128.79597656 36.47820312 129.52945312 36.83140625 130.28515625 37.1953125 C130.85105469 37.46085937 131.41695312 37.72640625 132 38 C132 38.99 132 39.98 132 41 C133.32 41.66 134.64 42.32 136 43 C136 43.66 136 44.32 136 45 C136.66 45 137.32 45 138 45 C138.66 45.99 139.32 46.98 140 48 C140.99 48.33 141.98 48.66 143 49 C143 49.99 143 50.98 143 52 C143.7425 52.226875 144.485 52.45375 145.25 52.6875 C148.56201872 54.26823621 149.99479838 55.95506421 152 59 C152 59.99 152 60.98 152 62 C152.99 62.33 153.98 62.66 155 63 C155.66666667 65 156.33333333 67 157 69 C157.99 69.33 158.98 69.66 160 70 C163 75.22222222 163 75.22222222 163 78 C163.99 78.33 164.98 78.66 166 79 C167.64820195 81.60242414 168 82.86248779 168 86 C168.66 86 169.32 86 170 86 C173 91.625 173 91.625 173 95 C173.66 95 174.32 95 175 95 C175.67057887 96.7902061 176.3363469 98.58221489 177 100.375 C177.37125 101.37273437 177.7425 102.37046875 178.125 103.3984375 C179 106 179 106 179 108 C179.66 108 180.32 108 181 108 C181.50404808 110.10320063 182.00310508 112.20759791 182.5 114.3125 C182.7784375 115.48425781 183.056875 116.65601563 183.34375 117.86328125 C184 121 184 121 184 124 C184.66 124 185.32 124 186 124 C186.67608269 126.85222385 187.34105115 129.70631293 188 132.5625 C188.28617188 133.76229492 188.28617188 133.76229492 188.578125 134.98632812 C189.67461122 139.78345532 190.21132197 144.08016034 190 149 C190.66 149 191.32 149 192 149 C192.51214451 152.28989285 193.00740064 155.58212862 193.5 158.875 C193.64308594 159.7928125 193.78617188 160.710625 193.93359375 161.65625 C194.84489671 167.81839384 195.18278149 173.77358238 195 180 C195.66 180 196.32 180 197 180 C197.7674203 191.89217027 198.15083747 203.72107985 198.1328125 215.63671875 C198.13348946 217.25657668 198.13446271 218.87643452 198.13571167 220.49629211 C198.13716898 223.85666898 198.13509767 227.2170189 198.13037109 230.57739258 C198.12466108 234.83971382 198.12797353 239.10197222 198.13394356 243.36429119 C198.13759107 246.69756019 198.13639177 250.03081476 198.13381577 253.36408424 C198.13315875 254.93423279 198.13393086 256.50438274 198.13629532 258.07452965 C198.14808883 268.09570074 197.79958852 278.00810706 197 288 C196.34 288 195.68 288 195 288 C195.05220703 288.86044922 195.05220703 288.86044922 195.10546875 289.73828125 C195.41127334 299.33472063 193.63932566 308.58363532 192 318 C191.34 318 190.68 318 190 318 C189.96261719 318.58265625 189.92523437 319.1653125 189.88671875 319.765625 C189.32790944 326.7343058 187.84009453 333.26455965 186 340 C185.34 340 184.68 340 184 340 C183.95101563 340.56847656 183.90203125 341.13695312 183.8515625 341.72265625 C183.36856919 346.71081129 182.52361837 351.22599578 181 356 C180.34 356 179.68 356 179 356 C178.896875 356.70125 178.79375 357.4025 178.6875 358.125 C177.90640997 361.39137647 176.57941257 364.0471852 175 367 C174.34 367 173.68 367 173 367 C172.87625 367.9075 172.7525 368.815 172.625 369.75 C172.07500738 372.60996164 171.53636103 374.55989718 170 377 C169.34 377.33 168.68 377.66 168 378 C167.505 378.845625 167.01 379.69125 166.5 380.5625 C165.7575 381.7690625 165.7575 381.7690625 165 383 C164.34 383 163.68 383 163 383 C162.896875 383.556875 162.79375 384.11375 162.6875 384.6875 C161.85821592 387.4769101 160.65700944 389.6139064 159 392 C158.34 392 157.68 392 157 392 C156.814375 392.86625 156.62875 393.7325 156.4375 394.625 C154.53840651 399.08374124 151.7252458 401.0563906 148 404 C145.09275727 406.70806596 145.09275727 406.70806596 143 410 C142.01 410 141.02 410 140 410 C139.7525 410.61875 139.505 411.2375 139.25 411.875 C137.76718549 414.39578467 136.59136042 414.7852998 134 416 C133.34 416.99 132.68 417.98 132 419 C129.36034793 420.61785127 128.15987325 421 125 421 C124.67 422.32 124.34 423.64 124 425 C124.99 425.33 125.98 425.66 127 426 C127 426.99 127 427.98 127 429 C127.7425 429.2475 128.485 429.495 129.25 429.75 C132.23088821 431.10494919 133.74251979 432.66969785 136 435 C138.13309192 436.23512079 138.13309192 436.23512079 140 437 C140 437.66 140 438.32 140 439 C140.556875 439.103125 141.11375 439.20625 141.6875 439.3125 C145.75516477 440.52180574 148.34598217 442.0753541 150.8125 445.5625 C152 448 152 448 152 450 C152.639375 450.2475 153.27875 450.495 153.9375 450.75 C156.544301 452.32987939 156.29195078 453.16780311 157 456 C158.31403276 456.70394612 159.6520257 457.36345658 161 458 C165.00387077 461.43188923 166.42369437 464.0458966 168 469 C168.99 469.33 169.98 469.66 171 470 C172.64820195 472.60242414 173 473.86248779 173 477 C173.99 477.33 174.98 477.66 176 478 C178.21751399 481.69585666 179 483.63008373 179 488 C179.99 488.33 180.98 488.66 182 489 C183.39044898 492.87862084 184 495.86462003 184 500 C184.66 500 185.32 500 186 500 C186.67364661 502.08108685 187.33866798 504.1649671 188 506.25 C188.37125 507.41015625 188.7425 508.5703125 189.125 509.765625 C190 513 190 513 190 517 C190.66 517 191.32 517 192 517 C192.50604924 519.39469729 193.00499517 521.79051717 193.5 524.1875 C193.64308594 524.86103516 193.78617188 525.53457031 193.93359375 526.22851562 C194.68069842 529.87509793 195.17352282 533.27648957 195 537 C195.66 537 196.32 537 197 537 C200.58165209 559.80127986 200.58165209 559.80127986 200 569 C200.66 569 201.32 569 202 569 C203.15463902 582.96570046 203.14629446 596.89733699 203.1328125 610.90234375 C203.13348784 613.3946585 203.13445978 615.88697319 203.13571167 618.37928772 C203.13717807 623.57928093 203.1350685 628.77925686 203.13037109 633.97924805 C203.12467747 640.60001218 203.12795729 647.22073573 203.13394356 653.84149837 C203.13758041 658.98145343 203.13639626 664.12139908 203.13381577 669.26135445 C203.13315496 671.70066902 203.13394484 674.13998449 203.13629532 676.57929802 C203.14620944 689.75701363 203.00366869 702.85666168 202 716 C201.34 716 200.68 716 200 716 C200.01740234 716.58700684 200.03480469 717.17401367 200.05273438 717.77880859 C200.16357949 724.52056686 199.48722879 730.96342918 198.5 737.625 C198.35691406 738.62917969 198.21382812 739.63335938 198.06640625 740.66796875 C197.71712435 743.11294208 197.36157276 745.55681951 197 748 C196.34 748 195.68 748 195 748 C194.95101563 748.6290625 194.90203125 749.258125 194.8515625 749.90625 C194.36564801 755.46913314 193.49446374 760.61993052 192 766 C191.34 766 190.68 766 190 766 C189.896875 767.27875 189.79375 768.5575 189.6875 769.875 C189.11866692 775.13670594 187.6625387 779.99147146 186 785 C185.34 785 184.68 785 184 785 C183.86722656 785.77085937 183.73445313 786.54171875 183.59765625 787.3359375 C183.42105469 788.33882812 183.24445313 789.34171875 183.0625 790.375 C182.80146484 791.87160156 182.80146484 791.87160156 182.53515625 793.3984375 C182 796 182 796 181 798 C180.34 798 179.68 798 179 798 C178.896875 798.70125 178.79375 799.4025 178.6875 800.125 C177.90640997 803.39137647 176.57941257 806.0471852 175 809 C174.34 809 173.68 809 173 809 C172.87625 809.7425 172.7525 810.485 172.625 811.25 C171.65188033 815.53172656 170.13839942 817.99236723 167 821 C166.34 821.99 165.68 822.98 165 824 C164.34 824 163.68 824 163 824 C162.7525 824.78375 162.505 825.5675 162.25 826.375 C161 829 161 829 158.9375 830 C158.298125 830.33 157.65875 830.66 157 831 C156.32041397 833.39719432 156.32041397 833.39719432 156 836 C154.04997755 841.20005986 149.56203284 845.01108193 145 848 C144.34 848 143.68 848 143 848 C143 848.66 143 849.32 143 850 C142.02149805 851.02104551 141.02019573 852.0206121 140 853 C139.67 853.66 139.34 854.32 139 855 C134.5 858 134.5 858 132 858 C132 858.99 132 859.98 132 861 C130.906875 861.433125 129.81375 861.86625 128.6875 862.3125 C125.83106962 863.52605359 124.1477124 864.75466431 122 867 C120.33607955 867.67349161 118.66967972 868.3409159 117 869 C116.67 869.66 116.34 870.32 116 871 C113.67843403 871.40729228 111.3431213 871.74438677 109 872 C108.67 872.99 108.34 873.98 108 875 C107.01 875 106.02 875 105 875 C105 875.66 105 876.32 105 877 C103.73160474 877.50615298 102.46016898 878.00469099 101.1875 878.5 C100.12595703 878.91765625 100.12595703 878.91765625 99.04296875 879.34375 C97 880 97 880 94 880 C94 880.66 94 881.32 94 882 C91.60612843 882.67449966 89.21030779 883.33976641 86.8125 884 C85.80219727 884.28617188 85.80219727 884.28617188 84.77148438 884.578125 C81.09444844 885.5825836 77.8149818 886.23704741 74 886 C74 886.66 74 887.32 74 888 C70.83486722 888.51003854 67.66769716 889.00615957 64.5 889.5 C63.613125 889.64308594 62.72625 889.78617188 61.8125 889.93359375 C56.46923901 890.75865611 51.40603486 891.15157107 46 891 C46 891.66 46 892.32 46 893 C37.14613566 897.42693217 22.71184503 895.15146856 12.95507812 895.13037109 C10.00645812 895.12501174 7.05799039 895.13034284 4.109375 895.13671875 C-21.70587371 895.14706314 -21.70587371 895.14706314 -26 893 C-26 892.34 -26 891.68 -26 891 C-27.09957031 890.95101562 -28.19914063 890.90203125 -29.33203125 890.8515625 C-37.69549235 890.44157963 -45.80002095 889.8241854 -54 888 C-54 887.34 -54 886.68 -54 886 C-54.92619141 885.94392578 -54.92619141 885.94392578 -55.87109375 885.88671875 C-61.9767224 885.41276584 -67.28733047 884.19399627 -73 882 C-73 881.34 -73 880.68 -73 880 C-74.03125 879.87625 -75.0625 879.7525 -76.125 879.625 C-79.62116846 879.06110186 -82.68397627 878.21317941 -86 877 C-86 876.34 -86 875.68 -86 875 C-86.886875 874.71125 -87.77375 874.4225 -88.6875 874.125 C-96.7398374 871.3902439 -96.7398374 871.3902439 -99 868 C-100.65816784 867.31246699 -102.32459336 866.64438717 -104 866 C-104.33 865.34 -104.66 864.68 -105 864 C-106.97522846 862.95191959 -108.97481509 861.9479589 -111 861 C-111 860.34 -111 859.68 -111 859 C-111.721875 858.773125 -112.44375 858.54625 -113.1875 858.3125 C-116.58568303 856.72668125 -118.45230999 854.73876676 -121 852 C-121.825 851.175 -122.65 850.35 -123.5 849.5 C-131 842 -131 842 -133.5625 839.375 C-135.8364458 837.01941027 -135.8364458 837.01941027 -138.125 835.5625 C-140.6934936 833.42208867 -141.70386878 831.04590837 -143 828 C-143 827.34 -143 826.68 -143 826 C-143.99 825.67 -144.98 825.34 -146 825 C-149 819.77777778 -149 819.77777778 -149 817 C-149.66 817 -150.32 817 -151 817 C-151.19335938 816.43410156 -151.38671875 815.86820313 -151.5859375 815.28515625 C-151.84632813 814.55167969 -152.10671875 813.81820312 -152.375 813.0625 C-152.63023437 812.33160156 -152.88546875 811.60070312 -153.1484375 810.84765625 C-153.85271413 808.81317884 -153.85271413 808.81317884 -156 808 C-159 801.76923077 -159 801.76923077 -159 798 C-159.66 798 -160.32 798 -161 798 C-161.67467562 796.25307205 -162.33944156 794.50231475 -163 792.75 C-163.37125 791.77546875 -163.7425 790.8009375 -164.125 789.796875 C-165 787 -165 787 -165 783 C-165.66 783 -166.32 783 -167 783 C-170.44419134 773.58997722 -170.44419134 773.58997722 -170 769 C-170.66 769 -171.32 769 -172 769 C-174.47749634 758.295346 -175.61070106 747.96749079 -176 737 C-176.66 737 -177.32 737 -178 737 C-178.31727849 734.0212786 -178.62881101 731.04211503 -178.9375 728.0625 C-179.02451172 727.25103516 -179.11152344 726.43957031 -179.20117188 725.60351562 C-180.98118486 708.26487059 -181.17623322 690.98759252 -181.203125 673.57421875 C-181.20595238 672.32186747 -181.20877975 671.06951618 -181.21169281 669.77921486 C-181.22508034 663.81620173 -181.23500076 657.85320148 -181.2388947 651.89017552 C-181.24289829 645.80146952 -181.25508645 639.71292086 -181.28125 633.62426758 C-181.40620002 603.95163137 -181.42050364 574.50943947 -178 545 C-177.34 545 -176.68 545 -176 545 C-175.96261719 543.99582031 -175.92523438 542.99164062 -175.88671875 541.95703125 C-175.47926485 532.96433597 -174.37326375 524.71689328 -172 516 C-171.34 516 -170.68 516 -170 516 C-169.87625 514.824375 -169.7525 513.64875 -169.625 512.4375 C-169.13564065 508.45879574 -168.1944795 504.82233441 -167 501 C-166.34 501 -165.68 501 -165 501 C-164.79503906 500.31292969 -164.59007812 499.62585938 -164.37890625 498.91796875 C-164.10949219 498.01691406 -163.84007812 497.11585938 -163.5625 496.1875 C-163.16224609 494.84751953 -163.16224609 494.84751953 -162.75390625 493.48046875 C-162.19612127 491.64526945 -161.60655425 489.81966274 -161 488 C-160.34 488 -159.68 488 -159 488 C-158.814375 486.88625 -158.814375 486.88625 -158.625 485.75 C-158.04513299 483.19858515 -157.26291261 481.2732427 -156 479 C-155.34 479 -154.68 479 -154 479 C-153.5978125 477.5459375 -153.5978125 477.5459375 -153.1875 476.0625 C-152.795625 475.051875 -152.40375 474.04125 -152 473 C-151.01 472.67 -150.02 472.34 -149 472 C-148.896875 471.29875 -148.79375 470.5975 -148.6875 469.875 C-147.90640997 466.60862353 -146.57941257 463.9528148 -145 461 C-144.34 461 -143.68 461 -143 461 C-142.731875 460.360625 -142.46375 459.72125 -142.1875 459.0625 C-141 457 -141 457 -138 456 C-137.690625 455.360625 -137.38125 454.72125 -137.0625 454.0625 C-136 452 -136 452 -133.9375 451 C-131.81005123 450.19022378 -131.81005123 450.19022378 -131.375 448.0625 C-131.25125 447.381875 -131.1275 446.70125 -131 446 C-128.88024305 442.82036457 -127.03868144 441.82506675 -123.7421875 440.046875 C-121.47699671 438.68572897 -119.82751279 436.89278111 -118 435 C-117.01 434.67 -116.02 434.34 -115 434 C-114.67 433.34 -114.34 432.68 -114 432 C-108.69230769 429 -108.69230769 429 -105 429 C-104.855625 428.360625 -104.71125 427.72125 -104.5625 427.0625 C-104 425 -104 425 -103 424 C-103.66 423.67 -104.32 423.34 -105 423 C-105 422.34 -105 421.68 -105 421 C-105.556875 420.87625 -106.11375 420.7525 -106.6875 420.625 C-109.2421041 419.93456646 -111.59460135 419.10518316 -114 418 C-114.33 417.34 -114.66 416.68 -115 416 C-115.7425 415.566875 -116.485 415.13375 -117.25 414.6875 C-120.34202731 412.79011961 -122.50139484 410.62353542 -125 408 C-125.886875 407.13375 -126.77375 406.2675 -127.6875 405.375 C-130 403 -130 403 -132 400 C-132.99 399.5359375 -132.99 399.5359375 -134 399.0625 C-136.50327501 397.73263515 -136.7861938 396.50347528 -138 394 C-139.32848691 392.99357052 -140.66150329 391.99307821 -142 391 C-142.495 389.515 -142.495 389.515 -143 388 C-143.680625 387.319375 -143.680625 387.319375 -144.375 386.625 C-146.39514917 384.60485083 -147.67434418 382.5250587 -149 380 C-149 379.01 -149 378.02 -149 377 C-149.66 377 -150.32 377 -151 377 C-153.03435531 373.27034861 -154 371.33094958 -154 367 C-154.66 367 -155.32 367 -156 367 C-159 361.375 -159 361.375 -159 358 C-159.66 358 -160.32 358 -161 358 C-161.67184618 355.89748139 -162.33730968 353.79292237 -163 351.6875 C-163.556875 349.92986328 -163.556875 349.92986328 -164.125 348.13671875 C-165 345 -165 345 -165 342 C-165.66 342 -166.32 342 -167 342 C-167.50690584 339.93918639 -168.00524619 337.87626474 -168.5 335.8125 C-168.7784375 334.66394531 -169.056875 333.51539063 -169.34375 332.33203125 C-169.91495385 329.43181171 -170.13283779 326.93903615 -170 324 C-170.66 324 -171.32 324 -172 324 C-173.79229693 313.91128457 -175.21098314 303.88060529 -175.58984375 293.6328125 C-175.6293515 292.59565598 -175.66885925 291.55849945 -175.70956421 290.48991394 C-176.26742154 273.48288689 -176.14948854 256.45703072 -176.13037109 239.44311523 C-176.12466362 234.33084744 -176.12797397 229.21863207 -176.13394356 224.10636616 C-176.13760151 220.09170657 -176.13638709 216.0770589 -176.13381577 212.06239891 C-176.13316147 210.1798521 -176.13392063 208.29730411 -176.13629532 206.41475868 C-176.17149502 170.71210853 -176.17149502 170.71210853 -173.4375 154.125 C-173.29892578 153.22265625 -173.16035156 152.3203125 -173.01757812 151.390625 C-172.688732 149.25879493 -172.34614047 147.12909042 -172 145 C-171.34 145 -170.68 145 -170 145 C-169.92652344 143.93072266 -169.92652344 143.93072266 -169.8515625 142.83984375 C-169.41871477 137.29491509 -168.75971184 132.27913551 -167 127 C-166.34 127 -165.68 127 -165 127 C-164.896875 125.72125 -164.79375 124.4425 -164.6875 123.125 C-164.11866692 117.86329406 -162.6625387 113.00852854 -161 108 C-160.34 108 -159.68 108 -159 108 C-158.87625 107.113125 -158.7525 106.22625 -158.625 105.3125 C-158.05587264 102.29612498 -157.23385564 99.79673946 -156 97 C-155.34 97 -154.68 97 -154 97 C-153.731875 95.865625 -153.46375 94.73125 -153.1875 93.5625 C-152.795625 92.386875 -152.40375 91.21125 -152 90 C-150.515 89.505 -150.515 89.505 -149 89 C-148.896875 87.80375 -148.79375 86.6075 -148.6875 85.375 C-148.18975219 81.42105962 -147.11910487 78.42316941 -145 75 C-144.01 74.34 -143.02 73.68 -142 73 C-141.67 72.34 -141.34 71.68 -141 71 C-140 69 -140 69 -137 67 C-135.93753473 65.03247172 -134.92862192 63.03412421 -134 61 C-133.34 61 -132.68 61 -132 61 C-131.731875 60.360625 -131.46375 59.72125 -131.1875 59.0625 C-130 57 -130 57 -127 56 C-125.62665383 53.71108972 -124.84749184 51.54247553 -124 49 C-122.33333333 48 -120.66666667 47 -119 46 C-118.67 45.01 -118.34 44.02 -118 43 C-115.41927097 40.67734388 -114.54823932 40 -111 40 C-110.67 39.01 -110.34 38.02 -110 37 C-108.01679982 35.96708324 -106.01652194 34.9662501 -104 34 C-103.505 33.01 -103.505 33.01 -103 32 C-100.06295544 29.9904432 -98.60777515 29 -95 29 C-94.505 27.515 -94.505 27.515 -94 26 C-91.4375 24.8125 -91.4375 24.8125 -89 24 C-89 23.34 -89 22.68 -89 22 C-87.23141309 21.32739649 -85.46003984 20.66211605 -83.6875 20 C-82.70136719 19.62875 -81.71523438 19.2575 -80.69921875 18.875 C-78 18 -78 18 -75 18 C-75 17.34 -75 16.68 -75 16 C-73.58603098 15.49242138 -72.16868271 14.99425075 -70.75 14.5 C-69.96109375 14.2215625 -69.1721875 13.943125 -68.359375 13.65625 C-66 13 -66 13 -62 13 C-62 12.34 -62 11.68 -62 11 C-59.00200008 10.32303228 -56.00211777 9.65824212 -53 9 C-51.74123047 8.71382812 -51.74123047 8.71382812 -50.45703125 8.421875 C-45.17927979 7.27631654 -40.3998138 6.8000069 -35 7 C-34.67 6.01 -34.34 5.02 -34 4 C-22.59556312 2.25981345 -11.52992873 1.75979315 0 2 C0 1.34 0 0.68 0 0 Z M-12 130 C-12 130.66 -12 131.32 -12 132 C-12.886875 132.12375 -13.77375 132.2475 -14.6875 132.375 C-17.7284206 132.9487586 -20.22337139 133.65135182 -23 135 C-23.33 135.66 -23.66 136.32 -24 137 C-24.845625 137.495 -25.69125 137.99 -26.5625 138.5 C-27.366875 138.995 -28.17125 139.49 -29 140 C-29 140.66 -29 141.32 -29 142 C-29.61875 142.12375 -30.2375 142.2475 -30.875 142.375 C-33.19120832 142.87197356 -33.19120832 142.87197356 -35 145 C-35 145.99 -35 146.98 -35 148 C-35.66 148 -36.32 148 -37 148 C-39.96235695 151.63323689 -39.96235695 151.63323689 -41 156 C-41.66 156 -42.32 156 -43 156 C-43.50615298 157.26839526 -44.00469099 158.53983102 -44.5 159.8125 C-44.7784375 160.52019531 -45.056875 161.22789062 -45.34375 161.95703125 C-46.1529162 164.11841216 -46.1529162 164.11841216 -46 167 C-46.66 167 -47.32 167 -48 167 C-50.67883031 182.40854189 -50.67883031 182.40854189 -51 198 C-51.66 198 -52.32 198 -53 198 C-53 230.01 -53 262.02 -53 295 C-52.34 295 -51.68 295 -51 295 C-51.03480469 295.64582031 -51.06960938 296.29164063 -51.10546875 296.95703125 C-51.38966209 306.84966608 -49.7053546 316.29572027 -48 326 C-47.34 326 -46.68 326 -46 326 C-45.87625 327.0725 -45.7525 328.145 -45.625 329.25 C-45.10356064 332.37863615 -44.59911746 334.33480424 -43 337 C-42.34 337 -41.68 337 -41 337 C-40.7525 337.94875 -40.505 338.8975 -40.25 339.875 C-39.3142923 343.08693191 -39.3142923 343.08693191 -36.875 344.375 C-36.25625 344.58125 -35.6375 344.7875 -35 345 C-35 346.32 -35 347.64 -35 349 C-34.34 349 -33.68 349 -33 349 C-33 349.66 -33 350.32 -33 351 C-32.01 351 -31.02 351 -30 351 C-29.7525 351.639375 -29.505 352.27875 -29.25 352.9375 C-28.20311706 355.19895007 -28.20311706 355.19895007 -25.9375 355.5625 C-25.298125 355.706875 -24.65875 355.85125 -24 356 C-23.67 356.99 -23.34 357.98 -23 359 C-21.04259359 360.02756141 -21.04259359 360.02756141 -18.6875 360.6875 C-17.90761719 360.93886719 -17.12773437 361.19023437 -16.32421875 361.44921875 C-13.74939712 362.15372576 -13.74939712 362.15372576 -10 362 C-10 362.66 -10 363.32 -10 364 C4.26059745 366.10433059 16.73689493 365.83406173 31 364 C31 363.34 31 362.68 31 362 C31.60328125 361.87882813 32.2065625 361.75765625 32.828125 361.6328125 C33.62734375 361.46523438 34.4265625 361.29765625 35.25 361.125 C36.03890625 360.96257812 36.8278125 360.80015625 37.640625 360.6328125 C39.96831144 360.00849925 41.89031952 359.15161458 44 358 C44 357.34 44 356.68 44 356 C44.5775 355.87625 45.155 355.7525 45.75 355.625 C50.11592021 354.41224439 52.61035858 352.94290835 55 349 C55 348.01 55 347.02 55 346 C55.99 345.67 56.98 345.34 58 345 C58.33 343.845 58.66 342.69 59 341.5 C59.33 340.345 59.66 339.19 60 338 C60.99 337.67 61.98 337.34 63 337 C64.4477922 334.10441559 65 332.25811062 65 329 C65.66 329 66.32 329 67 329 C67.67662 326.31466436 68.34146121 323.627275 69 320.9375 C69.28617188 319.80924805 69.28617188 319.80924805 69.578125 318.65820312 C70.7141096 313.97226664 71.20486266 309.82067454 71 305 C71.66 305 72.32 305 73 305 C74.38174128 294.29116035 74.14525941 283.52420216 74.1328125 272.75 C74.13348738 270.6845702 74.13445894 268.61914047 74.13571167 266.55371094 C74.13717997 262.24022663 74.13506208 257.92676313 74.13037109 253.61328125 C74.12467436 248.10941918 74.12795802 242.60560589 74.13394356 237.10174561 C74.13757264 232.84130492 74.13639982 228.58087562 74.13381577 224.32043457 C74.13315298 222.29203282 74.13395201 220.26363 74.13629532 218.23522949 C74.19963726 203.58754789 74.19963726 203.58754789 73 189 C72.34 189 71.68 189 71 189 C71.04125 188.02933594 71.0825 187.05867188 71.125 186.05859375 C71.125 181.54896878 70.10350025 177.41312429 69 173.0625 C68.71382812 171.89364258 68.71382812 171.89364258 68.421875 170.70117188 C67.9550862 168.79900752 67.47854864 166.89923991 67 165 C66.34 165 65.68 165 65 165 C64.87625 164.278125 64.7525 163.55625 64.625 162.8125 C64.0039987 160.01799416 63.22183229 157.58740955 62 155 C61.34 154.67 60.68 154.34 60 154 C59.32421875 152.29296875 59.32421875 152.29296875 58.6875 150.1875 C57.27636731 146.17615833 55.5684517 144.4087049 52 142 C51.505 141.46375 51.01 140.9275 50.5 140.375 C48.98407749 138.8227135 48.98407749 138.8227135 46.5 138 C43.90547139 136.96218855 42.93261129 135.93261129 41 134 C37.61554014 132.35116058 35.86245304 132 32 132 C32 131.34 32 130.68 32 130 C24.60133662 128.20353251 17.59844741 127.6921438 10 127.75 C8.98421875 127.74226563 7.9684375 127.73453125 6.921875 127.7265625 C0.38864016 127.74331438 -5.65117408 128.45844326 -12 130 Z M-17 497 C-17 497.66 -17 498.32 -17 499 C-18.3921875 499.185625 -18.3921875 499.185625 -19.8125 499.375 C-23.13925235 499.81533082 -23.13925235 499.81533082 -26 502 C-26 502.66 -26 503.32 -26 504 C-26.928125 504.226875 -27.85625 504.45375 -28.8125 504.6875 C-32.63807159 506.26273536 -33.09484188 507.43818264 -35 511 C-35.86625 511.845625 -36.7325 512.69125 -37.625 513.5625 C-40.04799442 516.04925743 -40.23697054 516.83887794 -41 520 C-41.99 520.4640625 -41.99 520.4640625 -43 520.9375 C-43.66 521.288125 -44.32 521.63875 -45 522 C-45.81171228 524.55519921 -45.81171228 524.55519921 -46 527 C-46.66 527 -47.32 527 -48 527 C-48.50588147 528.91512272 -49.00448391 530.83216922 -49.5 532.75 C-49.7784375 533.81734375 -50.056875 534.8846875 -50.34375 535.984375 C-51.14175989 539.13705302 -51.14175989 539.13705302 -51 543 C-51.66 543 -52.32 543 -53 543 C-53.48681255 545.72798731 -53.96446806 548.45711562 -54.4375 551.1875 C-54.57220703 551.93708984 -54.70691406 552.68667969 -54.84570312 553.45898438 C-57.42484294 568.49348234 -57.16318706 583.61036452 -57.16796875 598.8125 C-57.17118949 601.23225931 -57.17455415 603.65201843 -57.17805481 606.07177734 C-57.18402013 611.13167776 -57.18589747 616.19156116 -57.18530273 621.25146484 C-57.18520144 627.67801929 -57.19883125 634.10446243 -57.21607494 640.5309906 C-57.22729435 645.52785729 -57.22921889 650.52469795 -57.22869301 655.52157593 C-57.22985907 657.8878111 -57.23420179 660.25404725 -57.24202538 662.62026978 C-57.29782834 681.24506397 -56.56642028 699.67467026 -53 718 C-52.34 718 -51.68 718 -51 718 C-50.95101562 718.56847656 -50.90203125 719.13695312 -50.8515625 719.72265625 C-50.36856919 724.71081129 -49.52361837 729.22599578 -48 734 C-47.34 734 -46.68 734 -46 734 C-45.87625 734.7425 -45.7525 735.485 -45.625 736.25 C-44.67142136 740.44574601 -43.5157459 742.4842541 -40.4375 745.5625 C-38 748 -38 748 -37 751 C-36.01 751 -35.02 751 -34 751 C-33.7525 751.639375 -33.505 752.27875 -33.25 752.9375 C-32.20311706 755.19895007 -32.20311706 755.19895007 -29.9375 755.5625 C-29.298125 755.706875 -28.65875 755.85125 -28 756 C-27.67 756.99 -27.34 757.98 -27 759 C-23.99152582 760.22520264 -23.99152582 760.22520264 -21 761 C-21 761.66 -21 762.32 -21 763 C-19.31409158 763.48473678 -17.62617455 763.96248926 -15.9375 764.4375 C-14.99777344 764.70433594 -14.05804688 764.97117187 -13.08984375 765.24609375 C3.54731358 769.30547601 23.90644292 769.13087889 40 763 C40 762.34 40 761.68 40 761 C41.134375 760.731875 42.26875 760.46375 43.4375 760.1875 C44.613125 759.795625 45.78875 759.40375 47 759 C47.33 758.01 47.66 757.02 48 756 C49.875 755.4375 49.875 755.4375 52 755 C52.99 754.34 53.98 753.68 55 753 C55 752.34 55 751.68 55 751 C55.66 751 56.32 751 57 751 C59.2013866 747.19572508 59.2013866 747.19572508 60 743 C60.99 742.67 61.98 742.34 63 742 C64.22520264 738.99152582 64.22520264 738.99152582 65 736 C65.66 736 66.32 736 67 736 C67.67184618 733.89748139 68.33730968 731.79292237 69 729.6875 C69.556875 727.92986328 69.556875 727.92986328 70.125 726.13671875 C71.13434772 723.06113324 71.13434772 723.06113324 71 720 C71.66 720 72.32 720 73 720 C74.77967263 711.95969329 76.43630637 704.28982104 76 696 C76.66 696 77.32 696 78 696 C78.92999033 683.13723284 79.14814043 670.33851779 79.1328125 657.4453125 C79.13348865 655.40762317 79.13446125 653.36993393 79.13571167 651.33224487 C79.13717469 647.08818789 79.1350799 642.84415214 79.13037109 638.60009766 C79.12468204 633.21602239 79.1279566 627.83199709 79.13394356 622.44792366 C79.13759343 618.24721922 79.13639036 614.04652621 79.13381577 609.84582138 C79.13315829 607.86310698 79.13393258 605.88039147 79.13629532 603.89767838 C79.14808129 591.23108242 78.79856486 578.64214121 78 566 C77.34 566 76.68 566 76 566 C76.0309375 564.8553125 76.061875 563.710625 76.09375 562.53125 C76.09375 558.05159621 75.39952897 553.87608689 74.5 549.5 C74.35691406 548.77296875 74.21382812 548.0459375 74.06640625 547.296875 C73.71766302 545.52990929 73.35980277 543.76474691 73 542 C72.34 542 71.68 542 71 542 C70.896875 541.01 70.79375 540.02 70.6875 539 C70.09191294 534.71702837 68.61404973 531.00003629 67 527 C66.34 527 65.68 527 65 527 C64.87625 526.2575 64.7525 525.515 64.625 524.75 C63.62802816 520.36332389 62.80009038 518.53339359 59 516 C58.71125 515.236875 58.4225 514.47375 58.125 513.6875 C56.10815848 508.86948969 52.6359953 506.15242639 48 504 C47.505 503.01 47.505 503.01 47 502 C42.20623489 499.65892298 42.20623489 499.65892298 37 499 C37 498.34 37 497.68 37 497 C28.2654612 494.3718557 20.22495335 493.52048864 11.125 493.625 C9.90006836 493.63080078 8.67513672 493.63660156 7.41308594 493.64257812 C-1.04791859 493.76412488 -8.88707512 494.43802372 -17 497 Z " fill="#171A1E" transform="translate(471,92)"/>
<path d="M0 0 C6.93 0 13.86 0 21 0 C21 0.66 21 1.32 21 2 C22.05316406 1.97679688 23.10632813 1.95359375 24.19140625 1.9296875 C33.99944682 1.7833159 43.31292071 2.42073816 53 4 C53.33 4.99 53.66 5.98 54 7 C54.96035156 6.95875 55.92070313 6.9175 56.91015625 6.875 C61.57697688 6.875 65.91801628 7.92202483 70.4375 9 C71.26443359 9.19078125 72.09136719 9.3815625 72.94335938 9.578125 C74.96382366 10.04528437 76.98214547 10.52169374 79 11 C79 11.66 79 12.32 79 13 C80.03125 13.12375 81.0625 13.2475 82.125 13.375 C85.62116846 13.93889814 88.68397627 14.78682059 92 16 C92 16.66 92 17.32 92 18 C92.92232422 18.18175781 92.92232422 18.18175781 93.86328125 18.3671875 C94.67152344 18.53476563 95.47976563 18.70234375 96.3125 18.875 C97.11300781 19.03742188 97.91351562 19.19984375 98.73828125 19.3671875 C101 20 101 20 104 22 C104 22.66 104 23.32 104 24 C104.99 24 105.98 24 107 24 C107 24.66 107 25.32 107 26 C108.32 26.33 109.64 26.66 111 27 C111 27.66 111 28.32 111 29 C111.928125 29.268125 112.85625 29.53625 113.8125 29.8125 C117 31 117 31 118.44140625 32.44921875 C120.7062227 34.70268273 123.36282639 35.66497863 126.2578125 36.9375 C128 38 128 38 129 41 C129.61875 41.28875 130.2375 41.5775 130.875 41.875 C133.7059488 43.3737376 134.40106777 45.24983656 136 48 C136.86625 48.86625 137.7325 49.7325 138.625 50.625 C141 53 141 53 142 56 C142.66 56.309375 143.32 56.61875 144 56.9375 C144.66 57.288125 145.32 57.63875 146 58 C146.36162029 59.32594105 146.69728039 60.65938457 147 62 C147.99 62.33 148.98 62.66 150 63 C151.03291676 64.98320018 152.0337499 66.98347806 153 69 C153.66 69.33 154.32 69.66 155 70 C155.84065632 71.96299854 156.46517348 73.96070871 157.12109375 75.9921875 C158.09315336 78.21280367 159.25563148 79.34792611 161 81 C162.39640986 83.93981024 163 85.72236256 163 89 C163.99 89.33 164.98 89.66 166 90 C168.02532117 93.97563044 169 96.5050702 169 101 C169.66 101 170.32 101 171 101 C171.50559908 102.43554025 172.0042749 103.8735202 172.5 105.3125 C172.91765625 106.51326172 172.91765625 106.51326172 173.34375 107.73828125 C174 110 174 110 174 113 C174.66 113 175.32 113 176 113 C176.67561372 115.5395837 177.34065828 118.08118835 178 120.625 C178.19078125 121.33785156 178.3815625 122.05070312 178.578125 122.78515625 C179.65017287 126.95848544 180.21946814 130.65178751 180 135 C180.66 135 181.32 135 182 135 C182.50954907 138.33194499 183.00587014 141.66573634 183.5 145 C183.64308594 145.93457031 183.78617188 146.86914062 183.93359375 147.83203125 C184.7350261 153.28940391 185.15609327 158.48470461 185 164 C185.66 164 186.32 164 187 164 C189.36603187 184.53435405 189.30976346 205.02328965 189.26074219 225.66259766 C189.2493486 230.5232842 189.25610199 235.38375153 189.26764679 240.24443054 C189.30703856 259.91945214 189.25533095 279.42639885 187 299 C186.34 299 185.68 299 185 299 C184.95101563 299.84820312 184.90203125 300.69640625 184.8515625 301.5703125 C184.30522568 310.14214881 183.32870616 318.51176068 182 327 C181.34 327 180.68 327 180 327 C179.96261719 327.61746094 179.92523437 328.23492187 179.88671875 328.87109375 C179.41276584 334.9767224 178.19399627 340.28733047 176 346 C175.34 346 174.68 346 174 346 C173.87625 347.19625 173.7525 348.3925 173.625 349.625 C173.17674946 353.27596813 172.29553163 356.54524899 171 360 C170.34 360 169.68 360 169 360 C168.71125 360.886875 168.4225 361.77375 168.125 362.6875 C167.16851252 365.50382424 166.13201054 368.25083156 165 371 C164.34 371 163.68 371 163 371 C162.690625 371.78375 162.38125 372.5675 162.0625 373.375 C161 376 161 376 160 378 C159.34 378 158.68 378 158 378 C157.690625 378.78375 157.38125 379.5675 157.0625 380.375 C156 383 156 383 155 385 C154.34 385 153.68 385 153 385 C152.71125 385.5775 152.4225 386.155 152.125 386.75 C151.75375 387.4925 151.3825 388.235 151 389 C150.71125 389.721875 150.4225 390.44375 150.125 391.1875 C149 393 149 393 146.9375 393.5625 C146.298125 393.706875 145.65875 393.85125 145 394 C144.67 394.99 144.34 395.98 144 397 C140.55555556 400 140.55555556 400 138 400 C138 400.66 138 401.32 138 402 C133.61538462 405 133.61538462 405 131 405 C131 405.66 131 406.32 131 407 C129.34151823 408.01351664 127.67334039 409.01120795 126 410 C125.319375 410.680625 124.63875 411.36125 123.9375 412.0625 C122.00770808 413.99229192 120.52994787 415.02066534 118 416 C117.01 416 116.02 416 115 416 C115 416.66 115 417.32 115 418 C113.75336669 418.50833591 112.50250613 419.00631145 111.25 419.5 C110.55390625 419.7784375 109.8578125 420.056875 109.140625 420.34375 C107 421 107 421 103 421 C103.33 421.99 103.66 422.98 104 424 C107.51190809 425.22969878 107.51190809 425.22969878 111 426 C111 426.99 111 427.98 111 429 C112.258125 429.309375 113.51625 429.61875 114.8125 429.9375 C117.26177394 430.53978048 119.60265923 431.20088641 122 432 C122 432.66 122 433.32 122 434 C122.94875 434.268125 123.8975 434.53625 124.875 434.8125 C128 436 128 436 130 439 C131.8154171 440.07452692 131.8154171 440.07452692 133.875 440.9375 C137.20928979 442.52583441 139.69609815 444.02412678 142 447 C142 447.99 142 448.98 142 450 C143.0828125 450.3403125 143.0828125 450.3403125 144.1875 450.6875 C147.54562879 452.25462677 149.4618052 454.328216 152 457 C152.99 457.66 153.98 458.32 155 459 C157.04413589 461.95264073 158 463.36672806 158 467 C158.66 467 159.32 467 160 467 C160.433125 467.94875 160.86625 468.8975 161.3125 469.875 C162.79302201 473.20041937 162.79302201 473.20041937 166 475 C167.85753812 478.23349228 169 480.24413583 169 484 C169.99 484.33 170.98 484.66 172 485 C173.52160014 488.6037898 174 491.05220686 174 495 C174.66 495 175.32 495 176 495 C176.67610423 496.89248819 177.34050439 498.7891602 178 500.6875 C178.37125 501.74324219 178.7425 502.79898437 179.125 503.88671875 C179.9391857 506.78362056 180.17709796 509.01700623 180 512 C180.66 512 181.32 512 182 512 C182.50734284 514.3736397 183.00602386 516.74857425 183.5 519.125 C183.64308594 519.79015625 183.78617188 520.4553125 183.93359375 521.140625 C184.7612283 525.16056422 185.15330658 528.89904899 185 533 C185.66 533 186.32 533 187 533 C187.51139597 536.14408784 188.00696036 539.29048573 188.5 542.4375 C188.64308594 543.31599609 188.78617188 544.19449219 188.93359375 545.09960938 C189.81809002 550.80671625 190.14099827 556.22494572 190 562 C190.66 562 191.32 562 192 562 C192.76362785 571.21431107 193.14534879 580.34774021 193.12939453 589.59204102 C193.13202301 591.50962219 193.13202301 591.50962219 193.13470459 593.46594238 C193.13920628 596.92662957 193.13751987 600.38728645 193.1343255 603.84797406 C193.13176441 607.49735921 193.1341497 611.14674205 193.13571167 614.79612732 C193.13752231 620.9193467 193.13515599 627.04255395 193.13037109 633.16577148 C193.12492818 640.21174865 193.12669583 647.25769686 193.1321975 654.30367333 C193.13675737 660.39073512 193.13736526 666.47778827 193.13475883 672.56485122 C193.13321211 676.18402736 193.13295774 679.80318996 193.13629532 683.42236519 C193.1397605 687.46071165 193.13493759 691.49900937 193.12939453 695.53735352 C193.13141876 696.71226852 193.13344299 697.88718353 193.13552856 699.09770203 C193.11614797 706.7729022 192.69070514 714.35631554 192 722 C191.34 722 190.68 722 190 722 C190.04640625 723.86978516 190.04640625 723.86978516 190.09375 725.77734375 C190.09375 731.45363877 189.32378159 736.95559017 188.5 742.5625 C188.35691406 743.57119141 188.21382812 744.57988281 188.06640625 745.61914062 C187.7164815 748.08027802 187.36091674 750.5404548 187 753 C186.34 753 185.68 753 185 753 C184.95101563 753.59425781 184.90203125 754.18851563 184.8515625 754.80078125 C184.26681078 761.28345975 183.25048188 767.61404401 182 774 C181.34 774 180.68 774 180 774 C179.896875 775.11375 179.79375 776.2275 179.6875 777.375 C179.070803 782.43554302 177.57493852 787.16622643 176 792 C175.34 792 174.68 792 174 792 C173.87625 792.886875 173.7525 793.77375 173.625 794.6875 C173.05587264 797.70387502 172.23385564 800.20326054 171 803 C170.34 803 169.68 803 169 803 C168.79503906 803.61488281 168.59007812 804.22976563 168.37890625 804.86328125 C167.25260417 808.2421875 166.12630208 811.62109375 165 815 C164.34 815 163.68 815 163 815 C161.92474806 817.65228812 160.90543849 820.28368454 160 823 C159.01 823.66 158.02 824.32 157 825 C156.31246699 826.65816784 155.64438717 828.32459336 155 830 C154.34 830.33 153.68 830.66 153 831 C151.87775145 832.88013106 151.87775145 832.88013106 150.875 835.0625 C150.52179688 835.79597656 150.16859375 836.52945313 149.8046875 837.28515625 C149.53914063 837.85105469 149.27359375 838.41695312 149 839 C148.34 839 147.68 839 147 839 C146.79375 839.7425 146.5875 840.485 146.375 841.25 C144.5917503 844.81649939 142.32708425 845.87066608 139 848 C136.74706274 850.56584522 134.8939459 853.15908115 133 856 C128.55555556 859 128.55555556 859 126 859 C125.6596875 859.9590625 125.6596875 859.9590625 125.3125 860.9375 C124 863 124 863 121.375 863.75 C120.199375 863.87375 120.199375 863.87375 119 864 C118.67 864.99 118.34 865.98 118 867 C116.34795544 867.70211894 114.68076231 868.36971413 113 869 C112.67 869.66 112.34 870.32 112 871 C109.4375 871.625 109.4375 871.625 107 872 C107 872.66 107 873.32 107 874 C105.35 874.33 103.7 874.66 102 875 C102 875.66 102 876.32 102 877 C95.5 880 95.5 880 91 880 C91 880.66 91 881.32 91 882 C88.58490559 882.67286212 86.16819644 883.33846012 83.75 884 C83.06808594 884.19078125 82.38617187 884.3815625 81.68359375 884.578125 C78.29399088 885.49957044 75.54221024 886 72 886 C72 886.66 72 887.32 72 888 C68.83486722 888.51003854 65.66769716 889.00615957 62.5 889.5 C61.613125 889.64308594 60.72625 889.78617188 59.8125 889.93359375 C54.46923901 890.75865611 49.40603486 891.15157107 44 891 C43.67 891.99 43.34 892.98 43 894 C32.33500736 895.26316789 21.6585466 895.15234569 10.93579102 895.13037109 C7.80935863 895.1249946 4.68306874 895.13035078 1.55664062 895.13671875 C-0.45572948 895.13605817 -2.4680995 895.13477743 -4.48046875 895.1328125 C-5.40256638 895.13483673 -6.324664 895.13686096 -7.27470398 895.13894653 C-12.92563683 895.11874031 -18.39367643 894.71739854 -24 894 C-24 893.01 -24 892.02 -24 891 C-24.53625 891.03480469 -25.0725 891.06960938 -25.625 891.10546875 C-33.9903894 891.3944049 -41.856156 889.69747617 -50 888 C-50 887.34 -50 886.68 -50 886 C-50.89138672 885.94392578 -50.89138672 885.94392578 -51.80078125 885.88671875 C-58.47134587 885.3576382 -64.60272899 883.93377584 -71 882 C-71 881.34 -71 880.68 -71 880 C-71.721875 879.87625 -72.44375 879.7525 -73.1875 879.625 C-75.95721894 879.0095069 -78.3970354 878.11555626 -81 877 C-81 876.34 -81 875.68 -81 875 C-82.98 874.67 -84.96 874.34 -87 874 C-87 873.34 -87 872.68 -87 872 C-88.2065625 871.814375 -88.2065625 871.814375 -89.4375 871.625 C-90.283125 871.41875 -91.12875 871.2125 -92 871 C-92.33 870.34 -92.66 869.68 -93 869 C-94.97522846 867.95191959 -96.97481509 866.9479589 -99 866 C-99 865.34 -99 864.68 -99 864 C-99.804375 863.731875 -100.60875 863.46375 -101.4375 863.1875 C-102.7059375 862.5996875 -102.7059375 862.5996875 -104 862 C-104.495 860.515 -104.495 860.515 -105 859 C-106.32148827 858.62243192 -107.65835921 858.2981424 -109 858 C-113.82242991 855.53271028 -113.82242991 855.53271028 -115 852 C-115.99 851.34 -116.98 850.68 -118 850 C-118 849.34 -118 848.68 -118 848 C-118.763125 847.773125 -119.52625 847.54625 -120.3125 847.3125 C-123.58423209 845.71467735 -124.27670327 844.13326678 -126 841 C-126.99 840.34 -127.98 839.68 -129 839 C-131.04413589 836.04735927 -132 834.63327194 -132 831 C-132.99 830.67 -133.98 830.34 -135 830 C-135.70151152 828.6846659 -136.36525925 827.34882408 -137 826 C-137.495 825.525625 -137.99 825.05125 -138.5 824.5625 C-140.39903312 822.5843405 -141.09899031 820.56441218 -142 818 C-142.66 818 -143.32 818 -144 818 C-144.67119549 816.5437455 -145.33681807 815.08492133 -146 813.625 C-146.37125 812.81289063 -146.7425 812.00078125 -147.125 811.1640625 C-148 809 -148 809 -148 807 C-148.66 807 -149.32 807 -150 807 C-150.50512244 805.39743892 -151.00391627 803.79288208 -151.5 802.1875 C-151.7784375 801.29417969 -152.056875 800.40085937 -152.34375 799.48046875 C-153 797 -153 797 -153 794 C-153.66 794 -154.32 794 -155 794 C-155.67413211 792.08594633 -156.3390332 790.16863974 -157 788.25 C-157.37125 787.18265625 -157.7425 786.1153125 -158.125 785.015625 C-159 782 -159 782 -159 778 C-159.66 778 -160.32 778 -161 778 C-161.50744423 776.10614563 -162.00564574 774.20981334 -162.5 772.3125 C-162.7784375 771.25675781 -163.056875 770.20101562 -163.34375 769.11328125 C-163.9391715 766.28857328 -164.12786492 763.87163292 -164 761 C-164.66 761 -165.32 761 -166 761 C-166.50688605 758.45953542 -167.00566874 755.91791124 -167.5 753.375 C-167.64308594 752.66214844 -167.78617188 751.94929687 -167.93359375 751.21484375 C-168.73049426 747.07855065 -169.16034056 743.23566321 -169 739 C-169.66 739 -170.32 739 -171 739 C-174.60865562 711.01851708 -174.34361027 683.17537013 -174.1875 655 C-174.0946875 631.24 -174.0946875 631.24 -174 607 C-135.06 607 -96.12 607 -56 607 C-55.625 649.9375 -55.625 649.9375 -55.52197266 663.32788086 C-55.34401443 682.63313384 -55.07393909 701.78742793 -53 721 C-52.34 721 -51.68 721 -51 721 C-50.81824219 722.04800781 -50.63648438 723.09601562 -50.44921875 724.17578125 C-50.19592942 725.55480095 -49.94198904 726.93370119 -49.6875 728.3125 C-49.56955078 729.00279297 -49.45160156 729.69308594 -49.33007812 730.40429688 C-48.61351938 734.20757023 -48.04061401 736.54533764 -45 739 C-42 744.44444444 -42 744.44444444 -42 747 C-41.01 747.33 -40.02 747.66 -39 748 C-37.9935725 749.66279327 -36.99414593 751.32983484 -36 753 C-34.68036291 754.01800576 -33.34990354 755.02248365 -32 756 C-32 756.66 -32 757.32 -32 758 C-31.236875 758.12375 -30.47375 758.2475 -29.6875 758.375 C-27 759 -27 759 -24 761 C-24 761.66 -24 762.32 -24 763 C-3.67463009 767.5840196 15.6672393 767.86753968 36 763 C36 762.34 36 761.68 36 761 C41.75 758 41.75 758 44 758 C44.33 757.01 44.66 756.02 45 755 C46.95387308 752.91137705 49.01194599 750.98910807 51.125 749.0625 C53.16593474 746.81747179 54.04698027 744.85905918 55 742 C55.66 742 56.32 742 57 742 C57.12117187 741.43152344 57.24234375 740.86304688 57.3671875 740.27734375 C58.41322054 735.45754536 59.59204484 730.7267066 61 726 C61.66 726 62.32 726 63 726 C63.05986084 725.4013916 63.11972168 724.8027832 63.18139648 724.18603516 C64.12093099 714.7906901 65.06046549 705.39534505 66 696 C66.66 696 67.32 696 68 696 C68 657.72 68 619.44 68 580 C67.34 580 66.68 580 66 580 C63.81862146 557.40510967 63.81862146 557.40510967 63 547 C62.34 547 61.68 547 61 547 C59.68 541.72 58.36 536.44 57 531 C56.34 531 55.68 531 55 531 C54.72736328 530.06027344 54.72736328 530.06027344 54.44921875 529.1015625 C54.07216797 527.87566406 54.07216797 527.87566406 53.6875 526.625 C53.44386719 525.81289063 53.20023438 525.00078125 52.94921875 524.1640625 C52.08631815 521.66815371 52.08631815 521.66815371 49 520 C49 519.01 49 518.02 49 517 C48.401875 516.938125 47.80375 516.87625 47.1875 516.8125 C44.08904655 515.66164586 43.44682943 513.89365887 42 511 C41.67 510.01 41.34 509.02 41 508 C38.6569191 506.87914688 38.6569191 506.87914688 36 506 C34.65949948 505.34786461 33.32338632 504.68620031 32 504 C32 503.34 32 502.68 32 502 C27.05 500.515 27.05 500.515 22 499 C22 498.34 22 497.68 22 497 C19.66745345 496.68051557 17.33419776 496.36951668 15 496.0625 C13.0509375 495.80146484 13.0509375 495.80146484 11.0625 495.53515625 C-9.54705245 493.356523 -30.30908253 493.50465652 -51 493 C-51 451.09 -51 409.18 -51 366 C-24.27 365.505 -24.27 365.505 3 365 C7.95 364.67 12.9 364.34 18 364 C18 363.34 18 362.68 18 362 C18.58007812 361.87882812 19.16015625 361.75765625 19.7578125 361.6328125 C24.28028442 360.66264526 28.63750966 359.56602217 33 358 C33 357.34 33 356.68 33 356 C38.75 353 38.75 353 41 353 C41.33 352.01 41.66 351.02 42 350 C42.66 350 43.32 350 44 350 C44.33 348.68 44.66 347.36 45 346 C45.66 346 46.32 346 47 346 C47.309375 345.38125 47.61875 344.7625 47.9375 344.125 C48.625 342.75 49.3125 341.375 50 340 C50.66 340 51.32 340 52 340 C52.99 336.37 53.98 332.74 55 329 C55.66 329 56.32 329 57 329 C58.32 323.06 59.64 317.12 61 311 C61.66 311 62.32 311 63 311 C64.04130508 297.93685374 64.14708862 284.93436795 64.1328125 271.8359375 C64.13348804 269.62789906 64.13446014 267.4198607 64.13571167 265.21182251 C64.13717625 260.6112598 64.13507387 256.01071666 64.13037109 251.41015625 C64.12466783 245.54913466 64.12796454 239.68815883 64.13394356 233.8271389 C64.13757706 229.27663841 64.13639794 224.72614857 64.13381577 220.17564774 C64.13315455 218.01575337 64.13394635 215.855858 64.13629532 213.69596481 C64.14587616 202.41682811 64.0657819 191.23864351 63 180 C62.34 180 61.68 180 61 180 C60.32900016 177.39688008 59.66304662 174.79264602 59 172.1875 C58.80921875 171.44951172 58.6184375 170.71152344 58.421875 169.95117188 C57.64737086 166.89464659 57 164.16626522 57 161 C56.34 161 55.68 161 55 161 C54.01 157.7 53.02 154.4 52 151 C51.34 151 50.68 151 50 151 C49.608125 150.071875 49.21625 149.14375 48.8125 148.1875 C46.82958598 144.70030637 45.47217904 143.82289399 42 142 C40.9805881 141.01979625 39.97753644 140.02196992 39 139 C38.01 138.34 37.02 137.68 36 137 C36 136.34 36 135.68 36 135 C35.29875 134.87625 34.5975 134.7525 33.875 134.625 C30.82343613 133.96161655 27.94659062 133.02788045 25 132 C25 131.34 25 130.68 25 130 C18.31590041 129.13797692 11.79831974 128.84695356 5.0625 128.875 C4.13759766 128.87113281 3.21269531 128.86726562 2.25976562 128.86328125 C-3.88314229 128.87189079 -9.90088972 129.27310726 -16 130 C-16 130.66 -16 131.32 -16 132 C-19.3 132.99 -22.6 133.98 -26 135 C-26 135.66 -26 136.32 -26 137 C-27.66666667 138 -29.33333333 139 -31 140 C-35.42085176 143.77389785 -37.68260338 147.78262101 -40 153 C-40.66 153 -41.32 153 -42 153 C-42.99 155.97 -43.98 158.94 -45 162 C-45.66 162 -46.32 162 -47 162 C-50.95027421 182.9857364 -50.55431749 204.10286531 -50.6875 225.375 C-50.790625 238.12125 -50.89375 250.8675 -51 264 C-90.6 264 -130.2 264 -171 264 C-171 243.87 -171 223.74 -171 203 C-170.34 203 -169.68 203 -169 203 C-169.03480469 201.80890625 -169.06960938 200.6178125 -169.10546875 199.390625 C-169.39938383 184.09938666 -167.86674232 169.16397155 -166 154 C-165.34 154 -164.68 154 -164 154 C-163.95101562 153.24976563 -163.90203125 152.49953125 -163.8515625 151.7265625 C-163.36122156 145.01396415 -162.49541074 138.56238501 -161 132 C-160.34 132 -159.68 132 -159 132 C-158.96261719 131.39414063 -158.92523437 130.78828125 -158.88671875 130.1640625 C-158.3859239 123.78138306 -157.04935314 118.05783632 -155 112 C-154.34 112 -153.68 112 -153 112 C-152.92652344 111.14728516 -152.92652344 111.14728516 -152.8515625 110.27734375 C-152.36856919 105.28918871 -151.52361837 100.77400422 -150 96 C-149.34 96 -148.68 96 -148 96 C-147.71125 95.113125 -147.4225 94.22625 -147.125 93.3125 C-146.16851252 90.49617576 -145.13201054 87.74916844 -144 85 C-143.34 85 -142.68 85 -142 85 C-141.01 82.03 -140.02 79.06 -139 76 C-138.34 76 -137.68 76 -137 76 C-136.7525 75.071875 -136.505 74.14375 -136.25 73.1875 C-134.88015505 69.69439537 -133.92951767 69.10559082 -131 67 C-130.32650839 65.33607955 -129.6590841 63.66967972 -129 62 C-128.01 61.67 -127.02 61.34 -126 61 C-125.814375 60.13375 -125.814375 60.13375 -125.625 59.25 C-124.69359645 55.89694722 -122.51817904 54.34648501 -120 52 C-117.3931208 49.51725791 -115.24976011 47.42958738 -113.4375 44.3125 C-111.81499245 41.70237916 -110.75030446 41.2032582 -108 40 C-106.97895449 39.02149805 -105.9793879 38.02019573 -105 37 C-101.33333333 34 -101.33333333 34 -99 34 C-99 33.34 -99 32.68 -99 32 C-98.071875 31.566875 -97.14375 31.13375 -96.1875 30.6875 C-93.07352146 29.23894475 -93.07352146 29.23894475 -91.3125 27.3125 C-90.879375 26.879375 -90.44625 26.44625 -90 26 C-89.01 26 -88.02 26 -87 26 C-87 25.34 -87 24.68 -87 24 C-86.34 24 -85.68 24 -85 24 C-85 23.34 -85 22.68 -85 22 C-83.39850114 21.32694982 -81.79368971 20.66177773 -80.1875 20 C-79.29417969 19.62875 -78.40085937 19.2575 -77.48046875 18.875 C-75 18 -75 18 -72 18 C-72 17.34 -72 16.68 -72 16 C-63.57142857 12.57142857 -63.57142857 12.57142857 -59 13 C-59 12.34 -59 11.68 -59 11 C-56.33580182 10.32184046 -53.66934242 9.65734223 -51 9 C-50.25621094 8.80921875 -49.51242187 8.6184375 -48.74609375 8.421875 C-43.69696542 7.19252201 -39.19599358 6.81105478 -34 7 C-33.67 6.01 -33.34 5.02 -33 4 C-21.91286142 2.16849628 -11.22070643 1.76864523 0 2 C0 1.34 0 0.68 0 0 Z " fill="#171A1E" transform="translate(886,92)"/>
<path d="M0 0 C27.72 0 55.44 0 84 0 C84 286.77 84 573.54 84 869 C43.08 869 2.16 869 -40 869 C-40 650.54 -40 432.08 -40 207 C-80.92 207 -121.84 207 -164 207 C-164 174.33 -164 141.66 -164 108 C-121 106 -121 106 -110 106 C-110 105.34 -110 104.68 -110 104 C-102.68194135 102.70487966 -95.4071181 101.62272232 -88 101 C-88 100.34 -88 99.68 -88 99 C-86.56445975 98.49440092 -85.1264798 97.9957251 -83.6875 97.5 C-82.88699219 97.2215625 -82.08648437 96.943125 -81.26171875 96.65625 C-79 96 -79 96 -76 96 C-76 95.34 -76 94.68 -76 94 C-74.23141309 93.32739649 -72.46003984 92.66211605 -70.6875 92 C-69.70136719 91.62875 -68.71523437 91.2575 -67.69921875 90.875 C-65 90 -65 90 -62 90 C-62 89.34 -62 88.68 -62 88 C-60.865625 87.54625 -59.73125 87.0925 -58.5625 86.625 C-54.95278308 85.42904194 -54.95278308 85.42904194 -54 83 C-51.4375 82.375 -51.4375 82.375 -49 82 C-49 81.34 -49 80.68 -49 80 C-48.01 79.67 -47.02 79.34 -46 79 C-44.28547658 77.30846256 -44.28547658 77.30846256 -42.625 75.25 C-39.87688963 72.01115563 -37.0457976 68.96564503 -34 66 C-31.32820474 63.39033952 -29.07429779 61.11144669 -27 58 C-26.34 58 -25.68 58 -25 58 C-24.87625 57.278125 -24.7525 56.55625 -24.625 55.8125 C-24.0095069 53.04278106 -23.11555626 50.6029646 -22 48 C-21.34 48 -20.68 48 -20 48 C-19.8453125 47.2265625 -19.8453125 47.2265625 -19.6875 46.4375 C-18.75736134 43.13973565 -17.38604488 40.13366668 -16 37 C-15.34 37 -14.68 37 -14 37 C-13.814375 35.948125 -13.814375 35.948125 -13.625 34.875 C-12.96161655 31.82343613 -12.02788045 28.94659062 -11 26 C-10.34 26 -9.68 26 -9 26 C-8.814375 24.948125 -8.814375 24.948125 -8.625 23.875 C-7.96161655 20.82343613 -7.02788045 17.94659062 -6 15 C-5.34 15 -4.68 15 -4 15 C-3.8453125 13.7934375 -3.8453125 13.7934375 -3.6875 12.5625 C-2.86054914 8.27739099 -1.38007271 4.14021814 0 0 Z " fill="#171A1E" transform="translate(164,101)"/>
<path d="M0 0 C0.33 0 0.66 0 1 0 C2.03590199 5.05002222 2.10251672 9.87416389 2 15 C2.66 15 3.32 15 4 15 C4.76362785 24.21431107 5.14534879 33.34774021 5.12939453 42.59204102 C5.13114685 43.87042847 5.13289917 45.14881592 5.13470459 46.46594238 C5.13920628 49.92662957 5.13751987 53.38728645 5.1343255 56.84797406 C5.13176441 60.49735921 5.1341497 64.14674205 5.13571167 67.79612732 C5.13752231 73.9193467 5.13515599 80.04255395 5.13037109 86.16577148 C5.12492818 93.21174865 5.12669583 100.25769686 5.1321975 107.30367333 C5.13675737 113.39073512 5.13736526 119.47778827 5.13475883 125.56485122 C5.13321211 129.18402736 5.13295774 132.80318996 5.13629532 136.42236519 C5.1397605 140.46071165 5.13493759 144.49900937 5.12939453 148.53735352 C5.13243088 150.29972603 5.13243088 150.29972603 5.13552856 152.09770203 C5.11614797 159.7729022 4.69070514 167.35631554 4 175 C3.34 175 2.68 175 2 175 C2.01160156 175.56847656 2.02320313 176.13695312 2.03515625 176.72265625 C2.09223194 181.60670484 1.81956772 186.18503965 1 191 C0.67 191 0.34 191 0 191 C0.14128816 187.70812224 0.28889207 184.4165548 0.4375 181.125 C0.49647461 179.74828125 0.49647461 179.74828125 0.55664062 178.34375 C0.83776388 172.2022881 1.32318013 166.11047926 2 160 C2.66 160 3.32 160 4 160 C4 118.75 4 77.5 4 35 C3.34 35 2.68 35 2 35 C1.93941406 33.85402344 1.87882812 32.70804688 1.81640625 31.52734375 C1.73193011 29.99738703 1.64728573 28.46743959 1.5625 26.9375 C1.52318359 26.18533203 1.48386719 25.43316406 1.44335938 24.65820312 C1.24700761 21.16918338 0.9676696 17.77558898 0.46875 14.3125 C0.02439035 11.17235848 -0.10159575 8.22925553 -0.0625 5.0625 C-0.05347656 4.10472656 -0.04445313 3.14695312 -0.03515625 2.16015625 C-0.02355469 1.44730469 -0.01195312 0.73445312 0 0 Z " fill="#2F3237" transform="translate(1074,639)"/>
<path d="M0 0 C0.33 0 0.66 0 1 0 C2.20568053 4.67201205 2.09382426 9.21496292 2 14 C2.66 14 3.32 14 4 14 C4.86428332 21.91141356 5.14371408 29.71753198 5.12939453 37.67236328 C5.13114685 38.88846283 5.13289917 40.10456238 5.13470459 41.35751343 C5.13832473 44.65902774 5.13751439 47.96050125 5.1343255 51.26201487 C5.13177202 54.73578373 5.13414759 58.20955011 5.13571167 61.68331909 C5.13752422 67.51170329 5.13515063 73.34007477 5.13037109 79.16845703 C5.12492512 85.88669418 5.12669726 92.60490098 5.1321975 99.3231374 C5.13674865 105.11623585 5.13736955 110.90932522 5.13475883 116.70242488 C5.13320771 120.15160867 5.13297022 123.60077824 5.13629532 127.04996109 C5.1397445 130.89546114 5.13495166 134.74092772 5.12939453 138.58642578 C5.13141876 139.71497986 5.13344299 140.84353394 5.13552856 142.00628662 C5.11929913 148.08785995 4.79656212 153.96942334 4 160 C3.34 160 2.68 160 2 160 C2 155.38 2 150.76 2 146 C2.66 146 3.32 146 4 146 C4 107.72 4 69.44 4 30 C3.34 30 2.68 30 2 30 C1.65935361 26.68821046 1.32885378 23.37547963 1 20.0625 C0.90460937 19.13630859 0.80921875 18.21011719 0.7109375 17.25585938 C0.14258953 11.47088893 -0.09538785 5.81269724 0 0 Z " fill="#303439" transform="translate(950,642)"/>
<path d="M0 0 C3.25209513 1.08403171 3.91385694 1.79991716 6 4.375 C9.50090084 8.65995676 13.28840611 12.11044224 17.57421875 15.59765625 C18.04472656 16.06042969 18.51523437 16.52320313 19 17 C19 17.66 19 18.32 19 19 C19.66 19 20.32 19 21 19 C21 19.66 21 20.32 21 21 C21.61875 21.103125 22.2375 21.20625 22.875 21.3125 C25 22 25 22 27 25 C29.05003955 26.19232613 29.05003955 26.19232613 31 27 C30.67 27.99 30.34 28.98 30 30 C30 29.34 30 28.68 30 28 C29.195625 27.731875 28.39125 27.46375 27.5625 27.1875 C26.716875 26.795625 25.87125 26.40375 25 26 C24.67 25.01 24.34 24.02 24 23 C22.67851173 22.62243192 21.34164079 22.2981424 20 22 C15.17757009 19.53271028 15.17757009 19.53271028 14 16 C13.01 15.34 12.02 14.68 11 14 C11 13.34 11 12.68 11 12 C10.236875 11.773125 9.47375 11.54625 8.6875 11.3125 C5.41576791 9.71467735 4.72329673 8.13326678 3 5 C2.01 4.34 1.02 3.68 0 3 C0 2.01 0 1.02 0 0 Z " fill="#303338" transform="translate(757,928)"/>
<path d="M0 0 C3 0 3 0 5.6875 2.375 C8 5 8 5 8 7 C8.763125 7.28875 9.52625 7.5775 10.3125 7.875 C13 9 13 9 16 11 C16 11.66 16 12.32 16 13 C16.5775 13.12375 17.155 13.2475 17.75 13.375 C20.02335767 14.00648824 21.9253529 14.88858191 24 16 C24 16.66 24 17.32 24 18 C24.99 18.33 25.98 18.66 27 19 C25 20 25 20 22.4375 19.1875 C20 18 20 18 19 16 C17.02477154 14.95191959 15.02518491 13.9479589 13 13 C13 12.34 13 11.68 13 11 C12.278125 10.773125 11.55625 10.54625 10.8125 10.3125 C7.45437121 8.74537323 5.5381948 6.671784 3 4 C2.01 3.34 1.02 2.68 0 2 C0 1.34 0 0.68 0 0 Z " fill="#2B2E33" transform="translate(347,940)"/>
<path d="M0 0 C0.66 0 1.32 0 2 0 C2 4.95 2 9.9 2 15 C1.34 15 0.68 15 0 15 C0.02320313 15.64324219 0.04640625 16.28648437 0.0703125 16.94921875 C0.22069868 24.47926961 -0.68136228 31.59443638 -2 39 C-2.33 39 -2.66 39 -3 39 C-2.28158937 25.97408103 -1.17316902 12.99195035 0 0 Z " fill="#313539" transform="translate(666,365)"/>
<path d="M0 0 C0 0.99 0 1.98 0 3 C-2.39387157 3.67449966 -4.78969221 4.33976641 -7.1875 5 C-7.86103516 5.19078125 -8.53457031 5.3815625 -9.22851562 5.578125 C-12.90555156 6.5825836 -16.1850182 7.23704741 -20 7 C-20 7.66 -20 8.32 -20 9 C-24.455 9.495 -24.455 9.495 -29 10 C-28.34 9.67 -27.68 9.34 -27 9 C-27 8.34 -27 7.68 -27 7 C-24.08444885 6.32810344 -21.16773049 5.66230692 -18.25 5 C-17.425 4.80921875 -16.6 4.6184375 -15.75 4.421875 C-14.95078125 4.24140625 -14.1515625 4.0609375 -13.328125 3.875 C-12.5949707 3.70742188 -11.86181641 3.53984375 -11.10644531 3.3671875 C-9 3 -9 3 -5 3 C-5 2.34 -5 1.68 -5 1 C-3 0 -3 0 0 0 Z " fill="#313439" transform="translate(565,971)"/>
<path d="M0 0 C0.33 0.66 0.66 1.32 1 2 C0.0625 4.625 0.0625 4.625 -1 7 C-1.66 7 -2.32 7 -3 7 C-3.12375 7.556875 -3.2475 8.11375 -3.375 8.6875 C-4.05976855 11.22114364 -4.99133763 13.57921032 -6 16 C-6.66 16 -7.32 16 -8 16 C-8.99 19.3 -9.98 22.6 -11 26 C-11.33 26 -11.66 26 -12 26 C-11.46148032 20.72250715 -10.22656164 16.74354436 -8 12 C-7.34 12 -6.68 12 -6 12 C-5.01 9.03 -4.02 6.06 -3 3 C-2.34 3 -1.68 3 -1 3 C-0.67 2.01 -0.34 1.02 0 0 Z " fill="#303439" transform="translate(750,165)"/>
<path d="M0 0 C0.66 0.33 1.32 0.66 2 1 C-0.14800843 3.36280927 -2.16680467 4.58340234 -5 6 C-5.33 6.66 -5.66 7.32 -6 8 C-8.1796875 9.10546875 -8.1796875 9.10546875 -10.875 10.1875 C-11.75929688 10.55230469 -12.64359375 10.91710937 -13.5546875 11.29296875 C-16 12 -16 12 -19 11 C-14.375 8 -14.375 8 -11 8 C-11 7.34 -11 6.68 -11 6 C-9.865625 5.54625 -8.73125 5.0925 -7.5625 4.625 C-3.95278308 3.42904194 -3.95278308 3.42904194 -3 1 C-2.01 0.67 -1.02 0.34 0 0 Z " fill="#323439" transform="translate(113,183)"/>
<path d="M0 0 C1 3 1 3 -0.125 5.375 C-3.16422551 9.62991572 -6.73174743 12.99641485 -11 16 C-11.66 15.67 -12.32 15.34 -13 15 C-10.82473237 10.99292806 -8.2942212 8.13735352 -5 5 C-3.6078125 3.6078125 -3.6078125 3.6078125 -2.1875 2.1875 C-1.1046875 1.1046875 -1.1046875 1.1046875 0 0 Z " fill="#2F3438" transform="translate(627,924)"/>
<path d="M0 0 C0.66 0 1.32 0 2 0 C2 0.99 2 1.98 2 3 C2.7425 3.226875 3.485 3.45375 4.25 3.6875 C7.56201872 5.26823621 8.99479838 6.95506421 11 10 C11 10.99 11 11.98 11 13 C11.66 13 12.32 13 13 13 C13 13.66 13 14.32 13 15 C9.16853404 13.43903239 6.71851946 11.08588695 4 8 C3.1875 5.6875 3.1875 5.6875 3 4 C2.01 4 1.02 4 0 4 C0 2.68 0 1.36 0 0 Z " fill="#373C40" transform="translate(612,141)"/>
<path d="M0 0 C0 3 0 3 -1 5 C-3.93704456 7.0095568 -5.39222485 8 -9 8 C-9 8.66 -9 9.32 -9 10 C-13.455 11.485 -13.455 11.485 -18 13 C-18 12.34 -18 11.68 -18 11 C-16.35 10.67 -14.7 10.34 -13 10 C-13 9.34 -13 8.68 -13 8 C-11.865625 7.54625 -10.73125 7.0925 -9.5625 6.625 C-5.95278308 5.42904194 -5.95278308 5.42904194 -5 3 C-3.35857037 1.9590934 -1.69287785 0.95495674 0 0 Z " fill="#303337" transform="translate(524,845)"/>
<path d="M0 0 C0.33 1.32 0.66 2.64 1 4 C0.48050781 4.44730469 -0.03898438 4.89460938 -0.57421875 5.35546875 C-5.35980076 9.50271977 -5.35980076 9.50271977 -9.875 13.9375 C-12 16 -12 16 -14 16 C-14 15.34 -14 14.68 -14 14 C-13.34 14 -12.68 14 -12 14 C-11.731875 13.360625 -11.46375 12.72125 -11.1875 12.0625 C-10 10 -10 10 -7 9 C-6.690625 8.360625 -6.38125 7.72125 -6.0625 7.0625 C-4.74945658 4.513651 -3.51625085 4.21754073 -1 3 C-0.67 2.01 -0.34 1.02 0 0 Z " fill="#2F3236" transform="translate(626,485)"/>
<path d="M0 0 C0.33 0 0.66 0 1 0 C0.55761615 7.53216715 -0.13905228 14.6802723 -2 22 C-2.66 22 -3.32 22 -4 22 C-4.33 22.99 -4.66 23.98 -5 25 C-4.67 21.7 -4.34 18.4 -4 15 C-3.34 15 -2.68 15 -2 15 C-1.90912109 14.00419922 -1.90912109 14.00419922 -1.81640625 12.98828125 C-0.98418278 4.21792619 -0.98418278 4.21792619 0 0 Z " fill="#303237" transform="translate(951,803)"/>
<path d="M0 0 C-0.66 0 -1.32 0 -2 0 C-2 0.66 -2 1.32 -2 2 C-8.6 2.66 -15.2 3.32 -22 4 C-22 3.34 -22 2.68 -22 2 C-18.7 2 -15.4 2 -12 2 C-12 1.34 -12 0.68 -12 0 C-10.56359829 -0.19573608 -9.12580496 -0.38127816 -7.6875 -0.5625 C-6.88699219 -0.66691406 -6.08648437 -0.77132812 -5.26171875 -0.87890625 C-3 -1 -3 -1 0 0 Z " fill="#33373C" transform="translate(66,205)"/>
<path d="M0 0 C9.9 1.98 9.9 1.98 20 4 C20 4.66 20 5.32 20 6 C20.66 6.33 21.32 6.66 22 7 C18.7 6.67 15.4 6.34 12 6 C12 5.34 12 4.68 12 4 C11.30132812 3.93941406 10.60265625 3.87882813 9.8828125 3.81640625 C8.97273438 3.73261719 8.06265625 3.64882813 7.125 3.5625 C6.22007812 3.48128906 5.31515625 3.40007813 4.3828125 3.31640625 C2 3 2 3 0 2 C0 1.34 0 0.68 0 0 Z " fill="#31353A" transform="translate(405,974)"/>
<path d="M0 0 C0.99 0.495 0.99 0.495 2 1 C2 1.66 2 2.32 2 3 C2.99 3.33 3.98 3.66 5 4 C6.64820195 6.60242414 7 7.86248779 7 11 C7.99 11.33 8.98 11.66 10 12 C10.33 13.98 10.66 15.96 11 18 C10.34 17.67 9.68 17.34 9 17 C9 16.01 9 15.02 9 14 C8.34 14 7.68 14 7 14 C4 8.25 4 8.25 4 6 C3.34 6 2.68 6 2 6 C0 3 0 3 0 0 Z " fill="#2E3137" transform="translate(637,558)"/>
<path d="M0 0 C3.71368887 1.23789629 4.77354181 2.85224877 7 6 C7 6.66 7 7.32 7 8 C7.639375 8.226875 8.27875 8.45375 8.9375 8.6875 C11 10 11 10 11.75 12.625 C11.87375 13.800625 11.87375 13.800625 12 15 C11.01 14.34 10.02 13.68 9 13 C9 12.34 9 11.68 9 11 C8.01 10.67 7.02 10.34 6 10 C4.98133771 8.34467377 3.98189187 6.67739862 3 5 C2.01 4.34 1.02 3.68 0 3 C0 2.01 0 1.02 0 0 Z " fill="#2E3137" transform="translate(1021,140)"/>
<path d="M0 0 C0.33 0 0.66 0 1 0 C0.44854729 5.23880078 -0.42922093 9.97350697 -2 15 C-2.66 15 -3.32 15 -4 15 C-4.33 16.98 -4.66 18.96 -5 21 C-5.66 21 -6.32 21 -7 21 C-6.32829194 17.1936543 -5.27253436 13.64793184 -4 10 C-3.34 10 -2.68 10 -2 10 C-1.855625 9.0925 -1.71125 8.185 -1.5625 7.25 C-1.13590527 4.78523044 -0.64925779 2.41152893 0 0 Z " fill="#2E3237" transform="translate(162,106)"/>
<path d="M0 0 C0 0.99 0 1.98 0 3 C-0.66 3 -1.32 3 -2 3 C-2.226875 3.639375 -2.45375 4.27875 -2.6875 4.9375 C-4 7 -4 7 -6.625 7.75 C-7.800625 7.87375 -7.800625 7.87375 -9 8 C-9.33 8.99 -9.66 9.98 -10 11 C-11.65 11.33 -13.3 11.66 -15 12 C-14.67 11.34 -14.34 10.68 -14 10 C-13.01 10 -12.02 10 -11 10 C-10.731875 9.360625 -10.46375 8.72125 -10.1875 8.0625 C-9 6 -9 6 -6 5 C-4.64631404 3.68733482 -3.31200404 2.35432675 -2 1 C-1.34 0.67 -0.68 0.34 0 0 Z " fill="#35383B" transform="translate(1014,948)"/>
<path d="M0 0 C0.66 0.33 1.32 0.66 2 1 C1.67 1.66 1.34 2.32 1 3 C0.34 3 -0.32 3 -1 3 C-1.226875 3.5775 -1.45375 4.155 -1.6875 4.75 C-3.73758279 8.26442764 -6.43333277 10.49189171 -10.3125 11.75 C-11.1478125 11.87375 -11.1478125 11.87375 -12 12 C-11.875 10.1875 -11.875 10.1875 -11 8 C-5.96428571 5 -5.96428571 5 -3 5 C-2.67 4.01 -2.34 3.02 -2 2 C-1.34 2 -0.68 2 0 2 C0 1.34 0 0.68 0 0 Z " fill="#2E3237" transform="translate(930,440)"/>
<path d="M0 0 C0.66 0.33 1.32 0.66 2 1 C1.34 1.66 0.68 2.32 0 3 C-0.99 3 -1.98 3 -3 3 C-3 3.66 -3 4.32 -3 5 C-4.24663331 5.50833591 -5.49749387 6.00631145 -6.75 6.5 C-7.44609375 6.7784375 -8.1421875 7.056875 -8.859375 7.34375 C-11 8 -11 8 -15 8 C-15.33 8.66 -15.66 9.32 -16 10 C-16 9.01 -16 8.02 -16 7 C-13.03 6.34 -10.06 5.68 -7 5 C-7 4.34 -7 3.68 -7 3 C-4.69631264 1.93347808 -2.35981813 0.93578995 0 0 Z " fill="#32363A" transform="translate(1004,505)"/>
<path d="M0 0 C3 1 3 1 4.6875 4.3125 C6 8 6 8 6 12 C6.66 12 7.32 12 8 12 C8 13.65 8 15.3 8 17 C7.34 17 6.68 17 6 17 C5.32779649 15.06441401 4.66241923 13.12645628 4 11.1875 C3.62875 10.10855469 3.2575 9.02960938 2.875 7.91796875 C2 5 2 5 2 2 C1.34 2 0.68 2 0 2 C0 1.34 0 0.68 0 0 Z " fill="#34373C" transform="translate(1049,181)"/>
<path d="M0 0 C0.33 1.32 0.66 2.64 1 4 C0.195625 4.268125 -0.60875 4.53625 -1.4375 4.8125 C-2.283125 5.204375 -3.12875 5.59625 -4 6 C-4.33 6.99 -4.66 7.98 -5 9 C-7.0625 10.6875 -7.0625 10.6875 -9 12 C-9.66 11.67 -10.32 11.34 -11 11 C-7.81316569 6.66590534 -4.13621084 3.3810038 0 0 Z " fill="#33363A" transform="translate(1035,480)"/>
<path d="M0 0 C0.33 0.99 0.66 1.98 1 3 C1.66 3 2.32 3 3 3 C3.433125 3.94875 3.86625 4.8975 4.3125 5.875 C5.79302201 9.20041937 5.79302201 9.20041937 9 11 C9 12.32 9 13.64 9 15 C6 14 6 14 4.3125 11.625 C3 9 3 9 3 6 C2.34 6 1.68 6 1 6 C0.67 4.02 0.34 2.04 0 0 Z " fill="#33353A" transform="translate(427,426)"/>
<path d="M0 0 C0.89674777 2.51089376 1.13172674 3.64535109 0.1875 6.1875 C-1 8 -1 8 -3 9 C-3.495 9.845625 -3.99 10.69125 -4.5 11.5625 C-4.995 12.366875 -5.49 13.17125 -6 14 C-6.66 14 -7.32 14 -8 14 C-8 13.34 -8 12.68 -8 12 C-7.34 11.67 -6.68 11.34 -6 11 C-5.15934368 9.03700146 -4.53482652 7.03929129 -3.87890625 5.0078125 C-2.91437162 2.80438673 -1.78745022 1.58331246 0 0 Z " fill="#2F3236" transform="translate(642,461)"/>
<path d="M0 0 C0.33 0.99 0.66 1.98 1 3 C-0.1446875 3.6496875 -0.1446875 3.6496875 -1.3125 4.3125 C-3.95340653 5.80736417 -3.95340653 5.80736417 -5.5 7.625 C-7.51536084 9.4724141 -9.33833049 9.64031493 -12 10 C-11.67 9.34 -11.34 8.68 -11 8 C-10.01 8 -9.02 8 -8 8 C-7.67 7.01 -7.34 6.02 -7 5 C-4.4375 3.8125 -4.4375 3.8125 -2 3 C-2 2.34 -2 1.68 -2 1 C-1.34 0.67 -0.68 0.34 0 0 Z " fill="#323539" transform="translate(600,950)"/>
<path d="M0 0 C0.99 0.495 0.99 0.495 2 1 C2 1.66 2 2.32 2 3 C2.66 3 3.32 3 4 3 C7 7.38461538 7 7.38461538 7 10 C7.66 10 8.32 10 9 10 C9 10.99 9 11.98 9 13 C6 12 6 12 5 10.125 C4.505 9.073125 4.505 9.073125 4 8 C3.484375 7.525625 2.96875 7.05125 2.4375 6.5625 C0.54736879 4.50800956 0.3675753 2.72005723 0 0 Z " fill="#2E3137" transform="translate(745,910)"/>
<path d="M0 0 C1.32 0.33 2.64 0.66 4 1 C4 1.66 4 2.32 4 3 C4.5775 3.103125 5.155 3.20625 5.75 3.3125 C8.38127015 4.11649921 9.98688093 5.13067515 12 7 C12 7.99 12 8.98 12 10 C11.01 9.67 10.02 9.34 9 9 C9 8.34 9 7.68 9 7 C8.21625 6.7525 7.4325 6.505 6.625 6.25 C3.61694992 4.8175952 3.24509643 3.9690761 2 1 C1.34 0.67 0.68 0.34 0 0 Z " fill="#35373C" transform="translate(607,528)"/>
<path d="M0 0 C0.33 1.32 0.66 2.64 1 4 C1.66 4 2.32 4 3 4 C3 7.63 3 11.26 3 15 C2.34 15 1.68 15 1 15 C0.67 10.05 0.34 5.1 0 0 Z " fill="#2F353B" transform="translate(546,643)"/>
<path d="M0 0 C0.33 0.99 0.66 1.98 1 3 C0.34 3.66 -0.32 4.32 -1 5 C-1.99 5 -2.98 5 -4 5 C-4.98120464 8.05263664 -4.98120464 9.94736336 -4 13 C-5.32 12.01 -6.64 11.02 -8 10 C-7.875 7.6875 -7.875 7.6875 -7 5 C-4 3.3125 -4 3.3125 -1 2 C-0.67 1.34 -0.34 0.68 0 0 Z " fill="#35383E" transform="translate(600,508)"/>
<path d="M0 0 C4.25 6.375 4.25 6.375 4 11 C4.66 11 5.32 11 6 11 C6 11.99 6 12.98 6 14 C5.01 14 4.02 14 3 14 C2.49307308 12.4188708 1.99473557 10.83498617 1.5 9.25 C1.2215625 8.36828125 0.943125 7.4865625 0.65625 6.578125 C0 4 0 4 0 0 Z " fill="#323438" transform="translate(943,621)"/>
<path d="M0 0 C0 0.66 0 1.32 0 2 C-3.35163945 5.05590655 -6.82240508 7.23612659 -11 9 C-11.66 8.67 -12.32 8.34 -13 8 C-9.25 5 -9.25 5 -7 5 C-7 4.34 -7 3.68 -7 3 C-2.61538462 0 -2.61538462 0 0 0 Z " fill="#30343B" transform="translate(522,445)"/>
<path d="M0 0 C1.32 0.33 2.64 0.66 4 1 C4 1.66 4 2.32 4 3 C4.94875 3.309375 5.8975 3.61875 6.875 3.9375 C10 5 10 5 12 6 C11.67 6.99 11.34 7.98 11 9 C10.34 8.67 9.68 8.34 9 8 C9 7.34 9 6.68 9 6 C8.443125 5.87625 7.88625 5.7525 7.3125 5.625 C4.77885636 4.94023145 2.42078968 4.00866237 0 3 C0 2.01 0 1.02 0 0 Z " fill="#31343A" transform="translate(357,507)"/>
<path d="M0 0 C2 0 2 0 3.7265625 1.64453125 C4.35304688 2.35996094 4.97953125 3.07539062 5.625 3.8125 C6.25664062 4.52019531 6.88828125 5.22789062 7.5390625 5.95703125 C9 8 9 8 9 11 C5.79798209 8.50954163 2.66997402 6.06552572 0 3 C0 2.01 0 1.02 0 0 Z " fill="#32353A" transform="translate(337,929)"/>
<path d="M0 0 C0.33 0 0.66 0 1 0 C1 1.65 1 3.3 1 5 C1.66 5 2.32 5 3 5 C3.33 7.97 3.66 10.94 4 14 C3.67 13.34 3.34 12.68 3 12 C2.34 12 1.68 12 1 12 C0.01751476 7.9472484 -0.08159574 4.16138263 0 0 Z " fill="#33363B" transform="translate(1070,620)"/>
<path d="M0 0 C7.87006961 3.11832947 7.87006961 3.11832947 10 6 C10 6.66 10 7.32 10 8 C6.01328937 6.63312778 3.11505367 4.84804907 0 2 C0 1.34 0 0.68 0 0 Z " fill="#303439" transform="translate(998,121)"/>
<path d="M0 0 C3.31530866 0.55255144 6.2084168 1.0747702 9 3 C10.25 5.625 10.25 5.625 11 8 C7.47437913 6.35471026 4.56869556 4.95399989 2 2 C1.34 1.34 0.68 0.68 0 0 Z " fill="#2E3338" transform="translate(585,121)"/>
<path d="M0 0 C5.8997555 5.58924205 5.8997555 5.58924205 7 9 C6.625 11.25 6.625 11.25 6 13 C5.34 11.02 4.68 9.04 4 7 C3.34 7 2.68 7 2 7 C0 4 0 4 0 0 Z " fill="#33373C" transform="translate(1047,562)"/>
<path d="M0 0 C0.66 0 1.32 0 2 0 C2 2.31 2 4.62 2 7 C1.34 7 0.68 7 0 7 C0 9.31 0 11.62 0 14 C-0.33 14 -0.66 14 -1 14 C-1.18451025 4.58997722 -1.18451025 4.58997722 0 0 Z " fill="#303339" transform="translate(1071,384)"/>
<path d="M0 0 C0.33 0.99 0.66 1.98 1 3 C-1.21934164 6.32901247 -2.34683329 6.75023244 -6 8 C-4.73058503 4.08597051 -3.48832306 2.20927127 0 0 Z " fill="#303539" transform="translate(1031,931)"/>
<path d="M0 0 C0.99 0 1.98 0 3 0 C4.42258812 3.82320557 5.24042276 6.91281305 5 11 C2.4345406 8.4345406 2.45953913 6.52313332 2 3 C1.34 3 0.68 3 0 3 C0 2.01 0 1.02 0 0 Z " fill="#2E3238" transform="translate(1055,577)"/>
<path d="M0 0 C0.33 0.99 0.66 1.98 1 3 C-0.45017921 5.59505753 -1.34638817 6.77590452 -4.1875 7.75 C-4.785625 7.8325 -5.38375 7.915 -6 8 C-5.8125 6.125 -5.8125 6.125 -5 4 C-2.4375 2.75 -2.4375 2.75 0 2 C0 1.34 0 0.68 0 0 Z " fill="#31373B" transform="translate(444,227)"/>
<path d="M0 0 C7.75 0.875 7.75 0.875 10 2 C10 2.99 10 3.98 10 5 C8.35 4.67 6.7 4.34 5 4 C5 3.34 5 2.68 5 2 C3.35 1.67 1.7 1.34 0 1 C0 0.67 0 0.34 0 0 Z " fill="#313439" transform="translate(968,106)"/>
<path d="M0 0 C3 0 3 0 5.6875 2.3125 C8 5 8 5 8 8 C4.27382578 6.75794193 2.60708543 4.8889325 0 2 C0 1.34 0 0.68 0 0 Z " fill="#414C52" transform="translate(347,940)"/>
<path d="M0 0 C0.66 0 1.32 0 2 0 C2 1.98 2 3.96 2 6 C1.34 6 0.68 6 0 6 C-0.33 7.32 -0.66 8.64 -1 10 C-1.125 3.375 -1.125 3.375 0 0 Z " fill="#2E3236" transform="translate(725,224)"/>
<path d="M0 0 C0.33 0.66 0.66 1.32 1 2 C1.66 2 2.32 2 3 2 C3 3.65 3 5.3 3 7 C2.01 7 1.02 7 0 7 C0 4.69 0 2.38 0 0 Z " fill="#303436" transform="translate(714,816)"/>
<path d="M0 0 C0.66 0 1.32 0 2 0 C2 1.65 2 3.3 2 5 C1.34 5 0.68 5 0 5 C0 6.65 0 8.3 0 10 C-0.33 10 -0.66 10 -1 10 C-1.125 3.375 -1.125 3.375 0 0 Z " fill="#2E3137" transform="translate(661,405)"/>
</svg>
